<svg xmlns="http://www.w3.org/2000/svg" xmlns:xlink="http://www.w3.org/1999/xlink" width="2000" zoomAndPan="magnify" viewBox="0 0 1500 1499.999933" height="2000" preserveAspectRatio="xMidYMid meet" version="1.0"><defs><g/><clipPath id="566d2201f8"><rect x="0" width="516" y="0" height="740"/></clipPath><clipPath id="73a6ac9717"><rect x="0" width="258" y="0" height="754"/></clipPath><clipPath id="742ce06728"><rect x="0" width="581" y="0" height="778"/></clipPath><clipPath id="f7d3966171"><path d="M 772 469 L 919 469 L 919 617 L 772 617 Z M 772 469 " clip-rule="nonzero"/></clipPath><clipPath id="6fec1a6945"><path d="M 850.671875 399.527344 L 987.03125 552.265625 L 836.53125 686.625 L 700.171875 533.890625 Z M 850.671875 399.527344 " clip-rule="nonzero"/></clipPath><clipPath id="d5026f2ff9"><path d="M 850.671875 399.527344 L 987.03125 552.265625 L 836.53125 686.625 L 700.171875 533.890625 Z M 850.671875 399.527344 " clip-rule="nonzero"/></clipPath><clipPath id="b68e9f616f"><path d="M 850.671875 399.527344 L 987.03125 552.265625 L 836.53125 686.625 L 700.171875 533.890625 Z M 850.671875 399.527344 " clip-rule="nonzero"/></clipPath><clipPath id="9ca74ae848"><rect x="0" width="573" y="0" height="740"/></clipPath><clipPath id="3b291f9e91"><rect x="0" width="732" y="0" height="666"/></clipPath><clipPath id="821c7cec13"><rect x="0" width="174" y="0" height="73"/></clipPath></defs><rect x="-150" width="1800" fill="#ffffff" y="-149.999993" height="1799.99992" fill-opacity="1"/><rect x="-150" width="1800" fill="#fffdf4" y="-149.999993" height="1799.99992" fill-opacity="1"/><g transform="matrix(1, 0, 0, 1, 583, 427)"><g clip-path="url(#566d2201f8)"><g fill="#f93d3a" fill-opacity="1"><g transform="translate(1.00553, 587.655693)"><g><path d="M 259.625 -281.5 C 272.332031 -317.945312 284.015625 -344.300781 294.671875 -360.5625 C 298.785156 -366.539062 303.082031 -372.519531 307.5625 -378.5 C 312.050781 -384.476562 316.726562 -389.898438 321.59375 -394.765625 C 324.019531 -397.003906 326.445312 -398.96875 328.875 -400.65625 C 332.425781 -403.269531 338.59375 -405.976562 347.375 -408.78125 C 354.851562 -410.46875 363.265625 -411.773438 372.609375 -412.703125 C 381.773438 -413.453125 390.1875 -412.800781 397.84375 -410.75 C 404.195312 -409.0625 410.179688 -405.132812 415.796875 -398.96875 C 423.265625 -390.5625 430.179688 -379.628906 436.546875 -366.171875 C 444.390625 -350.648438 452.425781 -330.085938 460.65625 -304.484375 C 468.6875 -278.878906 476.066406 -252.054688 482.796875 -224.015625 C 489.335938 -195.984375 494.757812 -168.695312 499.0625 -142.15625 C 503.175781 -115.425781 504.953125 -93.273438 504.390625 -75.703125 C 504.390625 -66.734375 503.546875 -57.296875 501.859375 -47.390625 C 499.992188 -37.296875 495.695312 -29.347656 488.96875 -23.546875 C 481.300781 -16.816406 463.828125 -11.117188 436.546875 -6.453125 C 409.066406 -1.585938 393.269531 -8.128906 389.15625 -26.078125 C 388.21875 -30.929688 387.9375 -35.976562 388.3125 -41.21875 C 388.6875 -46.257812 388.875 -51.210938 388.875 -56.078125 C 390 -88.597656 387.476562 -124.390625 381.3125 -163.453125 C 375.132812 -202.335938 369.335938 -229.347656 363.921875 -244.484375 C 358.503906 -259.617188 350.75 -254.382812 340.65625 -228.78125 C 330.5625 -203.175781 322.335938 -174.113281 315.984375 -141.59375 C 309.441406 -108.875 304.675781 -87.5625 301.6875 -77.65625 C 298.6875 -67.5625 284.289062 -62.515625 258.5 -62.515625 C 232.707031 -62.335938 218.222656 -67.296875 215.046875 -77.390625 C 211.867188 -87.296875 206.070312 -108.972656 197.65625 -142.421875 C 189.25 -175.691406 181.304688 -204.664062 173.828125 -229.34375 C 166.160156 -254.019531 159.523438 -258.785156 153.921875 -243.640625 C 148.316406 -228.316406 142.335938 -201.125 135.984375 -162.0625 C 129.628906 -122.988281 127.101562 -87.191406 128.40625 -54.671875 C 128.21875 -49.816406 128.40625 -44.863281 128.96875 -39.8125 C 129.34375 -34.582031 128.96875 -29.535156 127.84375 -24.671875 C 123.738281 -6.722656 107.476562 0.00390625 79.0625 -4.484375 C 50.65625 -8.972656 32.429688 -14.582031 24.390625 -21.3125 C 17.285156 -26.914062 12.800781 -34.765625 10.9375 -44.859375 C 9.0625 -54.765625 8.125 -64.203125 8.125 -73.171875 C 7.75 -90.742188 9.710938 -112.894531 14.015625 -139.625 C 18.316406 -166.351562 23.925781 -193.738281 30.84375 -221.78125 C 37.757812 -249.8125 45.515625 -276.722656 54.109375 -302.515625 C 62.523438 -328.128906 70.75 -348.785156 78.78125 -364.484375 C 85.320312 -377.941406 92.425781 -388.875 100.09375 -397.28125 C 105.882812 -403.644531 112.238281 -407.664062 119.15625 -409.34375 C 127.007812 -411.394531 135.796875 -412.050781 145.515625 -411.3125 C 155.046875 -410.5625 163.644531 -409.4375 171.3125 -407.9375 C 180.46875 -405.132812 186.820312 -402.519531 190.375 -400.09375 C 192.988281 -398.40625 195.601562 -396.441406 198.21875 -394.203125 C 203.082031 -389.347656 207.847656 -384.019531 212.515625 -378.21875 C 217.191406 -372.238281 221.773438 -366.257812 226.265625 -360.28125 C 237.472656 -343.644531 248.59375 -317.382812 259.625 -281.5 Z M 259.625 -281.5 "/></g></g></g></g></g><g transform="matrix(1, 0, 0, 1, 432, 412)"><g clip-path="url(#73a6ac9717)"><g fill="#31a768" fill-opacity="1"><g transform="translate(26.14235, 581.115394)"><g><path d="M 85.296875 -268.109375 C 90.441406 -268.273438 95.875 -267.925781 101.59375 -267.0625 C 104.1875 -266.675781 106.664062 -266.207031 109.03125 -265.65625 C 120.351562 -263.007812 128.453125 -260.9375 133.328125 -259.4375 C 140.148438 -257.082031 145.609375 -255.03125 149.703125 -253.28125 C 150.597656 -252.945312 151.804688 -252.195312 153.328125 -251.03125 C 153.984375 -250.363281 154.863281 -249.285156 155.96875 -247.796875 L 158.828125 -244.234375 C 159.296875 -243.597656 160.140625 -242.34375 161.359375 -240.46875 C 161.785156 -239.457031 162.132812 -237.984375 162.40625 -236.046875 L 163.078125 -229.15625 C 162.847656 -227.664062 162.875 -225.382812 163.15625 -222.3125 C 163.238281 -221.539062 163.15625 -220.328125 162.90625 -218.671875 C 160.25 -204.898438 155.535156 -185.007812 148.765625 -159 C 145.617188 -146.8125 143 -133.785156 140.90625 -119.921875 C 136.3125 -88.296875 134.039062 -54.515625 134.09375 -18.578125 C 132.851562 -12.910156 131.1875 -7.492188 129.09375 -2.328125 C 126.988281 2.835938 125.128906 6.332031 123.515625 8.15625 C 120.804688 11.15625 115.640625 12.835938 108.015625 13.203125 C 104.578125 13.429688 100.828125 13.238281 96.765625 12.625 C 92.671875 12.195312 88.515625 11.566406 84.296875 10.734375 C 76.742188 9.410156 68.644531 7.34375 60 4.53125 C 53.476562 2.59375 47.925781 0.523438 43.34375 -1.671875 L 40.28125 -3.84375 C 39.59375 -4.332031 38.53125 -5.4375 37.09375 -7.15625 C 36.4375 -7.8125 35.570312 -8.984375 34.5 -10.671875 C 34.46875 -10.484375 33.710938 -11.726562 32.234375 -14.40625 C 31.566406 -15.082031 31.125 -16.566406 30.90625 -18.859375 C 30.457031 -20.816406 30.242188 -23.117188 30.265625 -25.765625 C 30.296875 -29.734375 32.65625 -61.609375 37.34375 -121.390625 C 38.15625 -131.847656 39.300781 -141.976562 40.78125 -151.78125 L 40.984375 -153.15625 L 41.203125 -154.546875 L 41.40625 -155.9375 C 41.457031 -156.300781 41.53125 -156.765625 41.625 -157.328125 C 48.175781 -200.742188 62.734375 -237.671875 85.296875 -268.109375 Z M 170.71875 -358.703125 C 179.113281 -347.984375 182.320312 -336.0625 180.34375 -322.9375 C 178.394531 -310 171.820312 -299.644531 160.625 -291.875 C 149.4375 -284.113281 136.910156 -281.285156 123.046875 -283.390625 C 109.367188 -285.453125 98.332031 -291.84375 89.9375 -302.5625 C 81.539062 -313.289062 78.316406 -325.125 80.265625 -338.0625 C 82.242188 -351.1875 88.832031 -361.628906 100.03125 -369.390625 C 111.195312 -376.960938 123.617188 -379.71875 137.296875 -377.65625 C 151.160156 -375.550781 162.300781 -369.234375 170.71875 -358.703125 Z M 170.71875 -358.703125 "/></g></g></g></g></g><g transform="matrix(1, 0, 0, 1, 814, 190)"><g clip-path="url(#742ce06728)"><g fill="#f6d636" fill-opacity="1"><g transform="translate(274.363941, 645.383497)"><g><path d="M 93.125 -239.46875 L 117.921875 -236.3125 L 119.921875 -236.09375 C 139.171875 -234.800781 154.863281 -229.632812 167 -220.59375 C 179.050781 -211.300781 186.253906 -197.566406 188.609375 -179.390625 C 190.804688 -161.117188 187.15625 -142.734375 177.65625 -124.234375 C 171.457031 -112.328125 162.1875 -101.238281 149.84375 -90.96875 C 137.507812 -80.695312 123.71875 -71.988281 108.46875 -64.84375 L 108.359375 -64.453125 L 108.234375 -64.078125 C 89.085938 -55.492188 79.457031 -52.128906 79.34375 -53.984375 C 71.851562 -51.734375 65.359375 -50.222656 59.859375 -49.453125 L 17.890625 -47.375 C 9.097656 -48.039062 0.863281 -49.84375 -6.8125 -52.78125 C -7.21875 -52.769531 -7.550781 -52.804688 -7.8125 -52.890625 C -8.050781 -52.972656 -8.257812 -53.179688 -8.4375 -53.515625 C -8.851562 -53.503906 -9.234375 -53.625 -9.578125 -53.875 C -9.828125 -53.945312 -10.078125 -54.019531 -10.328125 -54.09375 C -14.367188 -55.769531 -17.515625 -58.347656 -19.765625 -61.828125 L -20.546875 -63.3125 C -22.722656 -67.863281 -25.335938 -73.457031 -28.390625 -80.09375 C -31.367188 -86.550781 -33.03125 -92.328125 -33.375 -97.421875 C -34 -103.003906 -32.050781 -105.925781 -27.53125 -106.1875 C -22.925781 -106.269531 -18.820312 -105.890625 -15.21875 -105.046875 C -14.707031 -104.890625 -14.242188 -104.816406 -13.828125 -104.828125 C -13.410156 -104.835938 -13.070312 -104.800781 -12.8125 -104.71875 C -3.832031 -102.46875 5.671875 -101.441406 15.703125 -101.640625 C 38.003906 -102.578125 56.144531 -108.828125 70.125 -120.390625 C 70.78125 -121.148438 71.753906 -122.503906 73.046875 -124.453125 C 76.773438 -130.628906 75.59375 -135.707031 69.5 -139.6875 C 69.257812 -139.769531 68.96875 -139.929688 68.625 -140.171875 L 67.609375 -140.90625 C 65.148438 -141.9375 50.976562 -144 25.09375 -147.09375 C -12.207031 -151.800781 -34.453125 -156.175781 -41.640625 -160.21875 C -59.035156 -169.65625 -69.570312 -182.695312 -73.25 -199.34375 C -76.925781 -215.988281 -75.039062 -233.125 -67.59375 -250.75 C -54.34375 -282.207031 -20.796875 -308.773438 33.046875 -330.453125 C 40.378906 -331.773438 46.925781 -332.785156 52.6875 -333.484375 C 54.757812 -333.523438 58.054688 -333.675781 62.578125 -333.9375 C 66.929688 -333.6875 71.988281 -333.703125 77.75 -333.984375 L 88.625 -329.546875 C 89.375 -329.316406 90.085938 -328.957031 90.765625 -328.46875 C 95.992188 -326.144531 101.347656 -321.984375 106.828125 -315.984375 C 112.128906 -309.898438 113.546875 -303.578125 111.078125 -297.015625 C 110.835938 -296.253906 110.632812 -295.832031 110.46875 -295.75 C 108.0625 -290.675781 102.785156 -287.0625 94.640625 -284.90625 C 85.722656 -282.976562 77.066406 -280.753906 68.671875 -278.234375 L 54.328125 -274.828125 C 47.691406 -272.191406 40.644531 -268.921875 33.1875 -265.015625 C 20.820312 -251.984375 29.503906 -244.085938 59.234375 -241.328125 C 61.929688 -240.609375 73.226562 -239.988281 93.125 -239.46875 Z M 93.125 -239.46875 "/></g></g></g></g></g><g clip-path="url(#f7d3966171)"><g clip-path="url(#6fec1a6945)"><g clip-path="url(#d5026f2ff9)"><g clip-path="url(#b68e9f616f)"><path fill="#f6d636" d="M 772.804688 469.308594 C 775.207031 469.949219 777.101562 471.554688 779.097656 472.886719 C 783.050781 475.472656 786.597656 478.652344 790.757812 480.9375 C 797.257812 484.53125 803.640625 488.441406 810.472656 491.359375 C 818.015625 494.652344 825.78125 497.292969 833.765625 499.277344 C 837.300781 500.179688 840.886719 500.792969 844.519531 501.117188 C 851.445312 501.683594 858.289062 501.1875 865.054688 499.628906 C 872.171875 497.921875 878.699219 494.847656 885.316406 491.957031 C 893.015625 488.519531 900.515625 484.699219 907.816406 480.488281 C 910.207031 479.128906 912.414062 477.4375 914.734375 475.964844 C 915.695312 475.421875 916.71875 475.242188 917.808594 475.425781 C 918.574219 475.53125 918.726562 476.253906 918.273438 477.238281 C 917.105469 479.851562 915.722656 482.34375 914.125 484.714844 C 910.046875 491.058594 906.207031 497.554688 902.660156 504.195312 C 900.085938 509.21875 897.871094 514.398438 896.019531 519.734375 C 894.941406 522.675781 889.359375 539.789062 888.882812 542.789062 C 888.246094 546.453125 888.019531 550.140625 888.199219 553.851562 C 888.382812 557.566406 888.96875 561.21875 889.960938 564.800781 C 891.019531 568.453125 892.410156 571.976562 894.132812 575.371094 C 896.382812 579.953125 898.339844 584.800781 900.535156 589.433594 C 903.285156 595.332031 906.453125 601 910.035156 606.433594 C 911.792969 609.257812 913.359375 612.179688 914.742188 615.207031 C 915.136719 616.039062 914.769531 616.582031 913.84375 616.613281 C 913.167969 616.574219 912.546875 616.371094 911.972656 616.011719 C 909.832031 614.871094 907.777344 613.589844 905.808594 612.167969 C 900.207031 608.484375 894.351562 605.261719 888.246094 602.5 C 879.9375 598.558594 871.253906 595.828125 862.195312 594.304688 C 859.0625 593.804688 855.894531 593.074219 852.746094 592.4375 C 848.074219 591.5 843.425781 591.894531 838.714844 592.257812 C 820.953125 593.277344 779.726562 613.914062 776.535156 615.792969 C 776.195312 615.992188 775.84375 616.152344 775.472656 616.28125 C 774.96875 616.449219 774.292969 616.804688 773.910156 616.371094 C 773.585938 615.792969 773.5625 615.203125 773.84375 614.601562 C 777.082031 606.289062 779.953125 597.824219 782.515625 589.304688 C 784.875 581.480469 787.472656 573.703125 789.464844 565.761719 C 791.332031 558.640625 792.792969 551.433594 793.851562 544.140625 C 794.511719 539.191406 794.65625 534.226562 794.277344 529.246094 C 793.898438 524.265625 793.007812 519.375 791.609375 514.578125 C 789.699219 507.972656 787.226562 501.578125 784.195312 495.402344 C 781.5625 490.171875 779.285156 484.6875 776.671875 479.386719 C 775.460938 476.925781 774.601562 474.230469 772.640625 472.140625 C 772.105469 471.582031 772.199219 470.671875 772.148438 469.894531 Z M 772.804688 469.308594 " fill-opacity="1" fill-rule="nonzero"/></g></g></g></g><g transform="matrix(1, 0, 0, 1, 927, 460)"><g clip-path="url(#9ca74ae848)"><g fill="#e8678f" fill-opacity="1"><g transform="translate(109.479605, 421.691127)"><g><path d="M 131.625 -99.125 C 155.28125 -106.65625 176.425781 -110.21875 195.0625 -109.8125 C 202.46875 -109.550781 207.160156 -109.359375 209.140625 -109.234375 C 237.679688 -107.378906 264.113281 -99.3125 288.4375 -85.03125 C 309.1875 -73.007812 325.175781 -57.15625 336.40625 -37.46875 C 341.5625 -28.082031 345 -16.976562 346.71875 -4.15625 C 348.300781 8.78125 347.578125 20.472656 344.546875 30.921875 C 340.835938 42.546875 333.695312 54.707031 323.125 67.40625 C 307.394531 86.03125 290.347656 99.898438 271.984375 109.015625 C 260.878906 114.578125 248.71875 118.550781 235.5 120.9375 C 222.15625 123.445312 209.46875 124.894531 197.4375 125.28125 C 179.46875 125.8125 161.691406 123.765625 144.109375 119.140625 C 126.535156 114.523438 110.75 106.394531 96.75 94.75 C 82.46875 82.320312 71.425781 68.25 63.625 52.53125 C 57.414062 39.96875 53.257812 26.945312 51.15625 13.46875 C 48.769531 0 49.890625 -13.273438 54.515625 -26.359375 C 58.742188 -39.316406 66.34375 -51.675781 77.3125 -63.4375 C 92.90625 -80.363281 111.007812 -92.257812 131.625 -99.125 Z M 155.625 -20.03125 C 147.289062 -11.695312 143.382812 1.71875 143.90625 20.21875 C 144.445312 38.71875 151.984375 50.484375 166.515625 55.515625 C 175.765625 58.679688 183.894531 58.21875 190.90625 54.125 C 197.644531 50.03125 203.0625 44.082031 207.15625 36.28125 C 216.414062 18.5625 214.5 0.394531 201.40625 -18.21875 C 188.320312 -36.863281 173.0625 -37.46875 155.625 -20.03125 Z M 155.625 -20.03125 "/></g></g></g></g></g><g transform="matrix(1, 0, 0, 1, 0, 396)"><g clip-path="url(#3b291f9e91)"><g fill="#3d98d6" fill-opacity="1"><g transform="translate(468.667248, 632.014041)"><g><path d="M -216.125 -316.109375 C -248.800781 -336.660156 -271.875 -353.945312 -285.34375 -367.96875 C -290.238281 -373.3125 -295.097656 -378.84375 -299.921875 -384.5625 C -304.753906 -390.28125 -308.988281 -396.046875 -312.625 -401.859375 C -314.269531 -404.734375 -315.640625 -407.546875 -316.734375 -410.296875 C -318.484375 -414.335938 -319.738281 -420.953125 -320.5 -430.140625 C -320.46875 -437.816406 -319.863281 -446.3125 -318.6875 -455.625 C -317.351562 -464.71875 -314.828125 -472.765625 -311.109375 -479.765625 C -308.054688 -485.578125 -302.890625 -490.523438 -295.609375 -494.609375 C -285.742188 -500.015625 -273.546875 -504.304688 -259.015625 -507.484375 C -242.128906 -511.648438 -220.285156 -514.875 -193.484375 -517.15625 C -166.734375 -519.25 -138.941406 -520.429688 -110.109375 -520.703125 C -81.316406 -520.796875 -53.503906 -519.960938 -26.671875 -518.203125 C 0.296875 -516.222656 22.273438 -512.988281 39.265625 -508.5 C 48.015625 -506.488281 57.03125 -503.5625 66.3125 -499.71875 C 75.726562 -495.613281 82.5 -489.640625 86.625 -481.796875 C 91.476562 -472.816406 93.117188 -454.507812 91.546875 -426.875 C 90.128906 -399 80.210938 -385.066406 61.796875 -385.078125 C 56.859375 -385.253906 51.878906 -386.113281 46.859375 -387.65625 C 42.023438 -389.15625 37.238281 -390.445312 32.5 -391.53125 C 1.0625 -399.914062 -34.382812 -405.484375 -73.84375 -408.234375 C -113.101562 -410.929688 -140.722656 -411.332031 -156.703125 -409.4375 C -172.671875 -407.539062 -169.304688 -398.8125 -146.609375 -383.25 C -123.921875 -367.675781 -97.4375 -353.144531 -67.15625 -339.65625 C -36.75 -325.945312 -17.054688 -316.53125 -8.078125 -311.40625 C 1.097656 -306.226562 2.796875 -291.070312 -2.984375 -265.9375 C -8.585938 -240.757812 -16.660156 -227.753906 -27.203125 -226.921875 C -37.578125 -226.035156 -60.007812 -225.242188 -94.5 -224.546875 C -128.8125 -223.816406 -158.828125 -222.570312 -184.546875 -220.8125 C -210.304688 -218.863281 -216.4375 -213.460938 -202.9375 -204.609375 C -189.257812 -195.710938 -164.09375 -183.785156 -127.4375 -168.828125 C -90.789062 -153.878906 -56.476562 -143.398438 -24.5 -137.390625 C -19.800781 -136.117188 -14.929688 -135.191406 -9.890625 -134.609375 C -4.710938 -133.804688 0.117188 -132.3125 4.609375 -130.125 C 21.171875 -122.09375 24.082031 -104.734375 13.34375 -78.046875 C 2.601562 -51.378906 -6.941406 -34.878906 -15.296875 -28.546875 C -22.359375 -22.878906 -31.015625 -20.265625 -41.265625 -20.703125 C -51.335938 -21.109375 -60.742188 -22.316406 -69.484375 -24.328125 C -86.703125 -27.898438 -107.851562 -34.773438 -132.9375 -44.953125 C -158.007812 -55.140625 -183.4375 -66.742188 -209.21875 -79.765625 C -234.988281 -92.785156 -259.476562 -106.375 -282.6875 -120.53125 C -305.757812 -134.46875 -324.039062 -147.113281 -337.53125 -158.46875 C -349.175781 -167.851562 -358.242188 -177.226562 -364.734375 -186.59375 C -369.628906 -193.65625 -372.117188 -200.742188 -372.203125 -207.859375 C -372.453125 -215.984375 -371.125 -224.695312 -368.21875 -234 C -365.351562 -243.113281 -362.335938 -251.234375 -359.171875 -258.359375 C -354.367188 -266.671875 -350.382812 -272.285156 -347.21875 -275.203125 C -345 -277.378906 -342.503906 -279.484375 -339.734375 -281.515625 C -333.910156 -285.160156 -327.65625 -288.613281 -320.96875 -291.875 C -314.082031 -295.082031 -307.222656 -298.203125 -300.390625 -301.234375 C -281.660156 -308.441406 -253.570312 -313.398438 -216.125 -316.109375 Z M -216.125 -316.109375 "/></g></g></g></g></g><g transform="matrix(1, 0, 0, 1, 1141, 987)"><g clip-path="url(#821c7cec13)"><g fill="#25754a" fill-opacity="1"><g transform="translate(7.852916, 39.712329)"><g><path d="M 24.171875 -8.234375 L 25.546875 -6.015625 C 25.566406 -5.953125 25.601562 -5.898438 25.65625 -5.859375 C 26.789062 -4.234375 27.390625 -2.632812 27.453125 -1.0625 C 27.492188 0.507812 26.851562 1.972656 25.53125 3.328125 C 24.195312 4.691406 22.476562 5.582031 20.375 6 C 19.007812 6.28125 17.507812 6.25 15.875 5.90625 C 14.238281 5.5625 12.628906 5 11.046875 4.21875 C 11.015625 4.238281 11 4.253906 11 4.265625 L 10.96875 4.265625 C 9.03125 3.265625 8.132812 2.707031 8.28125 2.59375 C 7.613281 2.113281 7.066406 1.6875 6.640625 1.3125 L 3.734375 -1.9375 C 3.210938 -2.707031 2.820312 -3.492188 2.5625 -4.296875 L 2.53125 -4.390625 C 2.5 -4.410156 2.488281 -4.441406 2.5 -4.484375 C 2.488281 -4.515625 2.476562 -4.539062 2.46875 -4.5625 C 2.457031 -4.601562 2.453125 -4.640625 2.453125 -4.671875 C 2.304688 -5.109375 2.304688 -5.523438 2.453125 -5.921875 L 2.515625 -6.0625 C 2.734375 -6.550781 3.007812 -7.128906 3.34375 -7.796875 C 3.675781 -8.453125 4.035156 -8.960938 4.421875 -9.328125 C 4.847656 -9.734375 5.21875 -9.753906 5.53125 -9.390625 C 5.84375 -9.035156 6.082031 -8.6875 6.25 -8.34375 C 6.257812 -8.289062 6.285156 -8.25 6.328125 -8.21875 C 6.316406 -8.175781 6.332031 -8.144531 6.375 -8.125 C 6.789062 -7.257812 7.332031 -6.425781 8 -5.625 C 9.519531 -3.875 11.195312 -2.804688 13.03125 -2.421875 C 13.144531 -2.421875 13.320312 -2.4375 13.5625 -2.46875 C 14.300781 -2.550781 14.640625 -2.96875 14.578125 -3.71875 C 14.554688 -3.75 14.550781 -3.785156 14.5625 -3.828125 C 14.539062 -3.867188 14.535156 -3.910156 14.546875 -3.953125 C 14.460938 -4.222656 13.707031 -5.507812 12.28125 -7.8125 C 10.21875 -11.101562 9.117188 -13.171875 8.984375 -14.015625 C 8.617188 -16.023438 8.976562 -17.71875 10.0625 -19.09375 C 11.164062 -20.46875 12.679688 -21.421875 14.609375 -21.953125 C 18.003906 -22.898438 22.332031 -21.894531 27.59375 -18.9375 C 28.175781 -18.4375 28.6875 -17.972656 29.125 -17.546875 C 29.28125 -17.390625 29.507812 -17.132812 29.8125 -16.78125 C 30.070312 -16.425781 30.398438 -16.023438 30.796875 -15.578125 C 31.296875 -15.035156 31.421875 -14.640625 31.171875 -14.390625 C 31.191406 -14.328125 31.207031 -14.25 31.21875 -14.15625 C 31.351562 -13.601562 31.351562 -12.910156 31.21875 -12.078125 C 31.082031 -11.242188 30.675781 -10.71875 30 -10.5 C 29.914062 -10.46875 29.859375 -10.453125 29.828125 -10.453125 C 29.273438 -10.328125 28.644531 -10.523438 27.9375 -11.046875 C 27.1875 -11.648438 26.445312 -12.207031 25.71875 -12.71875 L 24.5 -13.65625 C 23.851562 -14.019531 23.128906 -14.378906 22.328125 -14.734375 C 20.453125 -14.890625 20.375 -13.675781 22.09375 -11.09375 C 22.226562 -10.820312 22.921875 -9.867188 24.171875 -8.234375 Z M 24.171875 -8.234375 "/></g></g></g><g fill="#25754a" fill-opacity="1"><g transform="translate(39.871763, 52.533866)"><g><path d="M 10.421875 -19.546875 C 10.453125 -19.710938 10.492188 -19.878906 10.546875 -20.046875 C 10.972656 -21.578125 11.378906 -22.722656 11.765625 -23.484375 C 12.117188 -24.234375 12.554688 -24.847656 13.078125 -25.328125 C 13.515625 -25.753906 13.988281 -26.003906 14.5 -26.078125 C 15.070312 -26.160156 15.628906 -26.164062 16.171875 -26.09375 C 16.710938 -25.988281 17.269531 -25.84375 17.84375 -25.65625 C 18.675781 -25.375 19.300781 -25.019531 19.71875 -24.59375 C 20.113281 -24.144531 20.125 -23.429688 19.75 -22.453125 C 19.226562 -20.566406 18.78125 -19.003906 18.40625 -17.765625 C 18.695312 -17.679688 18.976562 -17.59375 19.25 -17.5 C 20 -17.269531 20.734375 -16.984375 21.453125 -16.640625 C 21.773438 -16.390625 22.128906 -16.0625 22.515625 -15.65625 C 22.796875 -15.351562 22.960938 -14.929688 23.015625 -14.390625 C 23.085938 -13.484375 22.910156 -12.71875 22.484375 -12.09375 C 22.046875 -11.46875 21.367188 -11.1875 20.453125 -11.25 C 19.515625 -11.28125 18.382812 -11.492188 17.0625 -11.890625 L 17.03125 -11.765625 C 15.925781 -8.265625 15.488281 -5.882812 15.71875 -4.625 C 15.9375 -3.351562 16.550781 -2.296875 17.5625 -1.453125 C 18.5625 -0.609375 18.71875 0.484375 18.03125 1.828125 C 17.351562 3.171875 16.128906 3.753906 14.359375 3.578125 C 12.578125 3.410156 11.039062 2.503906 9.75 0.859375 C 8.476562 -0.796875 7.851562 -2.867188 7.875 -5.359375 C 7.894531 -7.859375 8.226562 -10.546875 8.875 -13.421875 L 9 -13.984375 C 8.101562 -14.148438 7.234375 -14.335938 6.390625 -14.546875 C 6.117188 -14.566406 5.929688 -14.59375 5.828125 -14.625 C 5.660156 -14.65625 5.519531 -14.707031 5.40625 -14.78125 C 5.257812 -14.863281 5.15625 -14.96875 5.09375 -15.09375 C 5.03125 -15.21875 4.976562 -15.382812 4.9375 -15.59375 C 4.9375 -16.425781 5.015625 -17.09375 5.171875 -17.59375 C 5.304688 -18.09375 5.476562 -18.519531 5.6875 -18.875 C 5.882812 -19.269531 6.320312 -19.515625 7 -19.609375 C 7.375 -19.660156 7.820312 -19.695312 8.34375 -19.71875 C 8.644531 -19.707031 9.113281 -19.675781 9.75 -19.625 C 9.894531 -19.613281 10.117188 -19.585938 10.421875 -19.546875 Z M 10.421875 -19.546875 "/></g></g></g><g fill="#25754a" fill-opacity="1"><g transform="translate(67.971693, 58.321291)"><g><path d="M 12.59375 -2.03125 C 11.5625 -1.164062 10.359375 -0.8125 8.984375 -0.96875 C 7.910156 -0.988281 6.757812 -1.476562 5.53125 -2.4375 C 4.207031 -3.457031 3.269531 -4.757812 2.71875 -6.34375 C 2.144531 -7.925781 1.796875 -9.515625 1.671875 -11.109375 C 1.585938 -12.222656 1.597656 -13.765625 1.703125 -15.734375 C 1.796875 -17.691406 2.171875 -19.191406 2.828125 -20.234375 C 3.035156 -20.597656 3.335938 -20.800781 3.734375 -20.84375 C 4.410156 -20.925781 5.191406 -20.796875 6.078125 -20.453125 C 6.960938 -20.117188 7.5625 -19.773438 7.875 -19.421875 C 8.007812 -19.285156 8.09375 -19.128906 8.125 -18.953125 C 8.226562 -18.691406 8.238281 -18.414062 8.15625 -18.125 C 8.070312 -17.8125 7.992188 -17.523438 7.921875 -17.265625 C 7.617188 -16.296875 7.445312 -15.253906 7.40625 -14.140625 C 7.34375 -13.015625 7.382812 -11.972656 7.53125 -11.015625 C 7.613281 -10.359375 7.769531 -9.796875 8 -9.328125 C 8.675781 -8.066406 9.5625 -7.46875 10.65625 -7.53125 C 11.757812 -7.582031 12.585938 -8.445312 13.140625 -10.125 C 13.679688 -11.789062 13.847656 -13.898438 13.640625 -16.453125 C 13.617188 -16.785156 13.585938 -17.140625 13.546875 -17.515625 C 13.503906 -17.878906 13.5 -18.234375 13.53125 -18.578125 C 13.644531 -19.222656 14.023438 -19.671875 14.671875 -19.921875 C 15.296875 -20.160156 15.988281 -20.28125 16.75 -20.28125 C 17.507812 -20.28125 18.253906 -20.191406 18.984375 -20.015625 C 19.703125 -19.847656 20.195312 -19.65625 20.46875 -19.4375 C 20.96875 -19.070312 21.296875 -18.539062 21.453125 -17.84375 C 21.609375 -17.15625 21.703125 -16.484375 21.734375 -15.828125 C 21.828125 -14.585938 21.78125 -13.007812 21.59375 -11.09375 C 21.394531 -9.175781 21.113281 -7.203125 20.75 -5.171875 C 20.382812 -3.140625 20.101562 -1.929688 19.90625 -1.546875 C 19.695312 -1.160156 19.378906 -0.671875 18.953125 -0.078125 C 18.578125 0.398438 18.164062 0.71875 17.71875 0.875 C 17.195312 1.0625 16.617188 1.160156 15.984375 1.171875 C 15.328125 1.179688 14.742188 1.144531 14.234375 1.0625 C 13.492188 0.9375 12.945312 0.695312 12.59375 0.34375 C 12.226562 -0.03125 12.210938 -0.71875 12.546875 -1.71875 Z M 12.59375 -2.03125 "/></g></g></g><g fill="#25754a" fill-opacity="1"><g transform="translate(98.531526, 59.251253)"><g><path d="M 6.4375 -10.8125 C 6.570312 -9.820312 7.265625 -8.878906 8.515625 -7.984375 C 9.773438 -7.054688 10.9375 -6.960938 12 -7.703125 C 12.675781 -8.140625 13.046875 -8.695312 13.109375 -9.375 C 13.171875 -10.039062 13.046875 -10.71875 12.734375 -11.40625 C 12.378906 -12.164062 11.820312 -12.753906 11.0625 -13.171875 C 10.3125 -13.597656 9.578125 -13.8125 8.859375 -13.8125 C 8.128906 -13.800781 7.507812 -13.554688 7 -13.078125 C 6.488281 -12.585938 6.300781 -11.832031 6.4375 -10.8125 Z M 15.78125 -4.390625 C 15.363281 -3.953125 14.910156 -3.546875 14.421875 -3.171875 C 13.328125 -2.316406 12.097656 -1.722656 10.734375 -1.390625 C 9.359375 -1.097656 7.988281 -1.082031 6.625 -1.34375 C 5.601562 -1.5625 4.628906 -1.921875 3.703125 -2.421875 C 2.765625 -2.921875 2.003906 -3.617188 1.421875 -4.515625 C 0.847656 -5.367188 0.453125 -6.421875 0.234375 -7.671875 C -0.078125 -9.441406 0.0390625 -11.117188 0.59375 -12.703125 C 0.851562 -13.484375 1.164062 -14.25 1.53125 -15 C 1.90625 -15.726562 2.347656 -16.425781 2.859375 -17.09375 C 3.097656 -17.394531 3.328125 -17.675781 3.546875 -17.9375 C 4.960938 -19.601562 6.664062 -20.84375 8.65625 -21.65625 C 10.195312 -22.320312 11.738281 -22.582031 13.28125 -22.4375 C 12.457031 -27.082031 12.09375 -29.519531 12.1875 -29.75 C 12.363281 -30.1875 12.617188 -30.5 12.953125 -30.6875 C 13.335938 -30.914062 13.804688 -31.082031 14.359375 -31.1875 C 14.898438 -31.289062 15.398438 -31.351562 15.859375 -31.375 C 16.492188 -31.382812 17.015625 -31.285156 17.421875 -31.078125 C 17.828125 -30.847656 18.144531 -29.28125 18.375 -26.375 C 18.988281 -21.382812 19.570312 -17.273438 20.125 -14.046875 C 20.664062 -10.796875 21.488281 -7.976562 22.59375 -5.59375 C 22.707031 -5.34375 22.828125 -5.082031 22.953125 -4.8125 C 23.085938 -4.53125 23.1875 -4.257812 23.25 -4 C 23.320312 -3.488281 23.125 -3.097656 22.65625 -2.828125 C 22.1875 -2.535156 21.632812 -2.332031 21 -2.21875 C 20.34375 -2.101562 19.6875 -2.0625 19.03125 -2.09375 C 18.382812 -2.09375 17.921875 -2.15625 17.640625 -2.28125 C 17.109375 -2.488281 16.6875 -2.84375 16.375 -3.34375 C 16.15625 -3.6875 15.957031 -4.035156 15.78125 -4.390625 Z M 15.78125 -4.390625 "/></g></g></g><g fill="#25754a" fill-opacity="1"><g transform="translate(130.494673, 53.843327)"><g><path d="M -2.609375 -20.703125 C -2.273438 -20.867188 -1.898438 -21.007812 -1.484375 -21.125 C -1.296875 -21.1875 -1.113281 -21.234375 -0.9375 -21.265625 C -0.0820312 -21.441406 0.523438 -21.5625 0.890625 -21.625 C 1.421875 -21.675781 1.851562 -21.703125 2.1875 -21.703125 C 2.257812 -21.703125 2.363281 -21.695312 2.5 -21.6875 C 2.5625 -21.65625 2.65625 -21.597656 2.78125 -21.515625 L 3.078125 -21.390625 C 3.128906 -21.359375 3.226562 -21.296875 3.375 -21.203125 C 3.425781 -21.148438 3.492188 -21.0625 3.578125 -20.9375 L 3.84375 -20.5 C 3.875 -20.394531 3.945312 -20.242188 4.0625 -20.046875 C 4.082031 -19.992188 4.113281 -19.90625 4.15625 -19.78125 C 4.40625 -18.769531 4.707031 -17.289062 5.0625 -15.34375 C 5.226562 -14.414062 5.457031 -13.457031 5.75 -12.46875 C 6.414062 -10.1875 7.3125 -7.835938 8.4375 -5.421875 C 8.539062 -4.992188 8.597656 -4.578125 8.609375 -4.171875 C 8.628906 -3.753906 8.613281 -3.460938 8.5625 -3.296875 C 8.46875 -3.003906 8.171875 -2.726562 7.671875 -2.46875 C 7.441406 -2.351562 7.1875 -2.25 6.90625 -2.15625 C 6.625 -2.0625 6.320312 -1.976562 6 -1.90625 C 5.457031 -1.769531 4.851562 -1.65625 4.1875 -1.5625 C 3.6875 -1.488281 3.242188 -1.453125 2.859375 -1.453125 L 2.59375 -1.515625 C 2.53125 -1.523438 2.421875 -1.566406 2.265625 -1.640625 C 2.203125 -1.660156 2.109375 -1.710938 1.984375 -1.796875 C 1.992188 -1.773438 1.90625 -1.828125 1.71875 -1.953125 C 1.664062 -1.984375 1.59375 -2.078125 1.5 -2.234375 C 1.394531 -2.347656 1.304688 -2.492188 1.234375 -2.671875 C 1.109375 -2.941406 0.269531 -5.160156 -1.28125 -9.328125 C -1.539062 -10.054688 -1.769531 -10.769531 -1.96875 -11.46875 L -2 -11.578125 L -2.03125 -11.671875 L -2.0625 -11.78125 C -2.070312 -11.8125 -2.082031 -11.84375 -2.09375 -11.875 C -3 -15 -3.171875 -17.941406 -2.609375 -20.703125 Z M 0.3125 -29.453125 C 1.207031 -29.003906 1.796875 -28.300781 2.078125 -27.34375 C 2.347656 -26.414062 2.226562 -25.519531 1.71875 -24.65625 C 1.207031 -23.769531 0.457031 -23.179688 -0.53125 -22.890625 C -1.519531 -22.609375 -2.460938 -22.703125 -3.359375 -23.171875 C -4.253906 -23.617188 -4.835938 -24.304688 -5.109375 -25.234375 C -5.390625 -26.191406 -5.273438 -27.101562 -4.765625 -27.96875 C -4.253906 -28.820312 -3.503906 -29.390625 -2.515625 -29.671875 C -1.523438 -29.960938 -0.582031 -29.890625 0.3125 -29.453125 Z M 0.3125 -29.453125 "/></g></g></g><g fill="#25754a" fill-opacity="1"><g transform="translate(148.422585, 48.438364)"><g><path d="M -3.4375 -11.71875 C -3.34375 -13.550781 -3.035156 -15.113281 -2.515625 -16.40625 C -2.304688 -16.914062 -2.171875 -17.234375 -2.109375 -17.359375 C -1.234375 -19.296875 0.015625 -20.921875 1.640625 -22.234375 C 3.023438 -23.367188 4.539062 -24.066406 6.1875 -24.328125 C 6.976562 -24.429688 7.84375 -24.378906 8.78125 -24.171875 C 9.71875 -23.929688 10.507812 -23.570312 11.15625 -23.09375 C 11.863281 -22.53125 12.519531 -21.722656 13.125 -20.671875 C 14.007812 -19.078125 14.523438 -17.523438 14.671875 -16.015625 C 14.773438 -15.109375 14.734375 -14.164062 14.546875 -13.1875 C 14.367188 -12.195312 14.140625 -11.273438 13.859375 -10.421875 C 13.421875 -9.160156 12.804688 -7.984375 12.015625 -6.890625 C 11.242188 -5.785156 10.273438 -4.898438 9.109375 -4.234375 C 7.867188 -3.554688 6.601562 -3.160156 5.3125 -3.046875 C 4.28125 -2.941406 3.269531 -2.988281 2.28125 -3.1875 C 1.28125 -3.375 0.382812 -3.800781 -0.40625 -4.46875 C -1.195312 -5.101562 -1.851562 -5.953125 -2.375 -7.015625 C -3.144531 -8.535156 -3.5 -10.101562 -3.4375 -11.71875 Z M 2.6875 -11.328125 C 3.039062 -10.535156 3.867188 -9.910156 5.171875 -9.453125 C 6.460938 -9.015625 7.472656 -9.234375 8.203125 -10.109375 C 8.671875 -10.660156 8.851562 -11.234375 8.75 -11.828125 C 8.644531 -12.410156 8.375 -12.941406 7.9375 -13.421875 C 6.945312 -14.523438 5.632812 -14.867188 4 -14.453125 C 2.375 -14.035156 1.9375 -12.992188 2.6875 -11.328125 Z M 2.6875 -11.328125 "/></g></g></g></g></g></svg>