<svg xmlns="http://www.w3.org/2000/svg" xmlns:xlink="http://www.w3.org/1999/xlink" width="2000" zoomAndPan="magnify" viewBox="0 0 1500 1499.999933" height="2000" preserveAspectRatio="xMidYMid meet" version="1.0"><defs><g/><clipPath id="c467ff00e6"><rect x="0" width="381" y="0" height="548"/></clipPath><clipPath id="ddeaa14188"><rect x="0" width="192" y="0" height="558"/></clipPath><clipPath id="2cb0f907d4"><rect x="0" width="430" y="0" height="576"/></clipPath><clipPath id="2d973f6dbd"><path d="M 781 529 L 890 529 L 890 639 L 781 639 Z M 781 529 " clip-rule="nonzero"/></clipPath><clipPath id="6d98823595"><path d="M 839.433594 477.949219 L 940.328125 590.960938 L 828.992188 690.359375 L 728.097656 577.34375 Z M 839.433594 477.949219 " clip-rule="nonzero"/></clipPath><clipPath id="657872217c"><path d="M 839.433594 477.949219 L 940.328125 590.960938 L 828.992188 690.359375 L 728.097656 577.34375 Z M 839.433594 477.949219 " clip-rule="nonzero"/></clipPath><clipPath id="36f8ac7ae1"><path d="M 839.433594 477.949219 L 940.328125 590.960938 L 828.992188 690.359375 L 728.097656 577.34375 Z M 839.433594 477.949219 " clip-rule="nonzero"/></clipPath><clipPath id="cd9df48156"><rect x="0" width="548" y="0" height="548"/></clipPath><clipPath id="44ae0fafe6"><rect x="0" width="617" y="0" height="494"/></clipPath><clipPath id="b90ec53b91"><rect x="0" width="128" y="0" height="54"/></clipPath></defs><rect x="-150" width="1800" fill="#ffffff" y="-149.999993" height="1799.99992" fill-opacity="1"/><rect x="-150" width="1800" fill="#fffdf4" y="-149.999993" height="1799.99992" fill-opacity="1"/><g transform="matrix(1, 0, 0, 1, 642, 498)"><g clip-path="url(#c467ff00e6)"><g fill="#f93d3a" fill-opacity="1"><g transform="translate(0.0127515, 435.346606)"><g><path d="M 192.203125 -208.390625 C 201.609375 -235.378906 210.257812 -254.890625 218.15625 -266.921875 C 221.195312 -271.359375 224.378906 -275.789062 227.703125 -280.21875 C 231.023438 -284.644531 234.484375 -288.65625 238.078125 -292.25 C 239.878906 -293.914062 241.675781 -295.367188 243.46875 -296.609375 C 246.101562 -298.546875 250.671875 -300.550781 257.171875 -302.625 C 262.703125 -303.875 268.929688 -304.84375 275.859375 -305.53125 C 282.640625 -306.082031 288.863281 -305.597656 294.53125 -304.078125 C 299.238281 -302.835938 303.664062 -299.929688 307.8125 -295.359375 C 313.351562 -289.140625 318.472656 -281.046875 323.171875 -271.078125 C 328.984375 -259.597656 334.9375 -244.378906 341.03125 -225.421875 C 346.976562 -206.460938 352.441406 -186.601562 357.421875 -165.84375 C 362.265625 -145.082031 366.28125 -124.878906 369.46875 -105.234375 C 372.507812 -85.441406 373.820312 -69.046875 373.40625 -56.046875 C 373.40625 -49.398438 372.785156 -42.410156 371.546875 -35.078125 C 370.160156 -27.609375 366.976562 -21.726562 362 -17.4375 C 356.320312 -12.457031 343.378906 -8.238281 323.171875 -4.78125 C 302.835938 -1.175781 291.144531 -6.015625 288.09375 -19.296875 C 287.40625 -22.898438 287.203125 -26.640625 287.484375 -30.515625 C 287.753906 -34.242188 287.890625 -37.910156 287.890625 -41.515625 C 288.722656 -65.585938 286.851562 -92.085938 282.28125 -121.015625 C 277.71875 -149.796875 273.429688 -169.789062 269.421875 -181 C 265.410156 -192.207031 259.664062 -188.332031 252.1875 -169.375 C 244.71875 -150.414062 238.628906 -128.898438 233.921875 -104.828125 C 229.078125 -80.609375 225.550781 -64.832031 223.34375 -57.5 C 221.125 -50.019531 210.46875 -46.28125 191.375 -46.28125 C 172.28125 -46.144531 161.554688 -49.8125 159.203125 -57.28125 C 156.847656 -64.613281 152.554688 -80.664062 146.328125 -105.4375 C 140.109375 -130.070312 134.226562 -151.519531 128.6875 -169.78125 C 123.019531 -188.050781 118.109375 -191.582031 113.953125 -180.375 C 109.796875 -169.03125 105.367188 -148.894531 100.671875 -119.96875 C 95.960938 -91.050781 94.09375 -64.550781 95.0625 -40.46875 C 94.925781 -36.875 95.066406 -33.207031 95.484375 -29.46875 C 95.753906 -25.59375 95.476562 -21.859375 94.65625 -18.265625 C 91.601562 -4.984375 79.5625 -0.00390625 58.53125 -3.328125 C 37.5 -6.640625 24.007812 -10.789062 18.0625 -15.78125 C 12.800781 -19.925781 9.476562 -25.734375 8.09375 -33.203125 C 6.707031 -40.546875 6.015625 -47.535156 6.015625 -54.171875 C 5.742188 -67.179688 7.195312 -83.582031 10.375 -103.375 C 13.5625 -123.15625 17.710938 -143.425781 22.828125 -164.1875 C 27.953125 -184.9375 33.695312 -204.863281 40.0625 -223.96875 C 46.289062 -242.925781 52.378906 -258.210938 58.328125 -269.828125 C 63.171875 -279.796875 68.425781 -287.894531 74.09375 -294.125 C 78.382812 -298.820312 83.09375 -301.796875 88.21875 -303.046875 C 94.03125 -304.566406 100.53125 -305.050781 107.71875 -304.5 C 114.78125 -303.945312 121.148438 -303.113281 126.828125 -302 C 133.609375 -299.925781 138.3125 -297.992188 140.9375 -296.203125 C 142.875 -294.953125 144.8125 -293.5 146.75 -291.84375 C 150.34375 -288.238281 153.867188 -284.289062 157.328125 -280 C 160.796875 -275.570312 164.1875 -271.144531 167.5 -266.71875 C 175.800781 -254.40625 184.035156 -234.960938 192.203125 -208.390625 Z M 192.203125 -208.390625 "/></g></g></g></g></g><g transform="matrix(1, 0, 0, 1, 529, 487)"><g clip-path="url(#ddeaa14188)"><g fill="#31a768" fill-opacity="1"><g transform="translate(19.831787, 430.399493)"><g><path d="M 63.140625 -198.484375 C 66.941406 -198.609375 70.960938 -198.347656 75.203125 -197.703125 C 77.117188 -197.421875 78.957031 -197.082031 80.71875 -196.6875 C 89.09375 -194.707031 95.082031 -193.164062 98.6875 -192.0625 C 103.757812 -190.320312 107.804688 -188.804688 110.828125 -187.515625 C 111.492188 -187.265625 112.390625 -186.707031 113.515625 -185.84375 C 114.003906 -185.34375 114.65625 -184.546875 115.46875 -183.453125 L 117.578125 -180.828125 C 117.921875 -180.347656 118.546875 -179.410156 119.453125 -178.015625 C 119.765625 -177.265625 120.019531 -176.175781 120.21875 -174.75 L 120.71875 -169.625 C 120.550781 -168.539062 120.578125 -166.863281 120.796875 -164.59375 C 120.847656 -164.019531 120.78125 -163.117188 120.59375 -161.890625 C 118.632812 -151.691406 115.148438 -136.96875 110.140625 -117.71875 C 107.796875 -108.695312 105.847656 -99.054688 104.296875 -88.796875 C 100.898438 -65.367188 99.226562 -40.359375 99.28125 -13.765625 C 98.351562 -9.554688 97.113281 -5.546875 95.5625 -1.734375 C 94 2.085938 92.625 4.679688 91.4375 6.046875 C 89.4375 8.265625 85.613281 9.507812 79.96875 9.78125 C 77.425781 9.945312 74.648438 9.804688 71.640625 9.359375 C 68.609375 9.035156 65.53125 8.566406 62.40625 7.953125 C 56.8125 6.972656 50.816406 5.4375 44.421875 3.34375 C 39.597656 1.914062 35.488281 0.390625 32.09375 -1.234375 L 29.8125 -2.84375 C 29.3125 -3.195312 28.523438 -4.015625 27.453125 -5.296875 C 26.972656 -5.796875 26.335938 -6.664062 25.546875 -7.90625 C 25.523438 -7.769531 24.960938 -8.691406 23.859375 -10.671875 C 23.378906 -11.160156 23.054688 -12.265625 22.890625 -13.984375 C 22.546875 -15.410156 22.378906 -17.109375 22.390625 -19.078125 C 22.429688 -22.003906 24.179688 -45.597656 27.640625 -89.859375 C 28.253906 -97.609375 29.109375 -105.109375 30.203125 -112.359375 L 30.359375 -113.390625 L 30.515625 -114.40625 L 30.671875 -115.453125 C 30.710938 -115.710938 30.765625 -116.050781 30.828125 -116.46875 C 35.679688 -148.625 46.453125 -175.960938 63.140625 -198.484375 Z M 126.40625 -265.546875 C 132.613281 -257.609375 134.988281 -248.785156 133.53125 -239.078125 C 132.082031 -229.492188 127.210938 -221.832031 118.921875 -216.09375 C 110.640625 -210.351562 101.363281 -208.257812 91.09375 -209.8125 C 80.96875 -211.332031 72.796875 -216.066406 66.578125 -224.015625 C 60.367188 -231.941406 57.988281 -240.695312 59.4375 -250.28125 C 60.894531 -259.988281 65.769531 -267.71875 74.0625 -273.46875 C 82.320312 -279.0625 91.515625 -281.097656 101.640625 -279.578125 C 111.910156 -278.023438 120.164062 -273.347656 126.40625 -265.546875 Z M 126.40625 -265.546875 "/></g></g></g></g></g><g transform="matrix(1, 0, 0, 1, 812, 323)"><g clip-path="url(#2cb0f907d4)"><g fill="#f6d636" fill-opacity="1"><g transform="translate(203.408666, 477.62479)"><g><path d="M 68.96875 -177.28125 L 87.28125 -174.953125 L 88.78125 -174.796875 C 103.03125 -173.835938 114.648438 -170.015625 123.640625 -163.328125 C 132.566406 -156.441406 137.898438 -146.269531 139.640625 -132.8125 C 141.265625 -119.289062 138.554688 -105.679688 131.515625 -91.984375 C 126.929688 -83.160156 120.070312 -74.953125 110.9375 -67.359375 C 101.800781 -59.742188 91.59375 -53.285156 80.3125 -47.984375 L 80.21875 -47.703125 L 80.140625 -47.4375 C 65.960938 -41.09375 58.828125 -38.601562 58.734375 -39.96875 C 53.191406 -38.300781 48.382812 -37.179688 44.3125 -36.609375 L 13.234375 -35.078125 C 6.734375 -35.554688 0.644531 -36.890625 -5.03125 -39.078125 C -5.34375 -39.078125 -5.59375 -39.101562 -5.78125 -39.15625 C -5.957031 -39.226562 -6.109375 -39.382812 -6.234375 -39.625 C -6.546875 -39.601562 -6.832031 -39.6875 -7.09375 -39.875 C -7.269531 -39.9375 -7.460938 -40 -7.671875 -40.0625 C -10.660156 -41.300781 -12.984375 -43.203125 -14.640625 -45.765625 L -15.21875 -46.875 C -16.820312 -50.238281 -18.753906 -54.375 -21.015625 -59.28125 C -23.210938 -64.070312 -24.441406 -68.351562 -24.703125 -72.125 C -25.160156 -76.25 -23.71875 -78.410156 -20.375 -78.609375 C -16.976562 -78.671875 -13.945312 -78.394531 -11.28125 -77.78125 C -10.90625 -77.65625 -10.5625 -77.597656 -10.25 -77.609375 C -9.9375 -77.609375 -9.679688 -77.582031 -9.484375 -77.53125 C -2.847656 -75.863281 4.179688 -75.097656 11.609375 -75.234375 C 28.128906 -75.929688 41.570312 -80.5625 51.9375 -89.125 C 52.40625 -89.6875 53.117188 -90.6875 54.078125 -92.125 C 56.847656 -96.707031 55.972656 -100.46875 51.453125 -103.40625 C 51.273438 -103.46875 51.054688 -103.59375 50.796875 -103.78125 L 50.046875 -104.328125 C 48.242188 -105.097656 37.753906 -106.625 18.578125 -108.90625 C -9.023438 -112.382812 -25.492188 -115.617188 -30.828125 -118.609375 C -43.710938 -125.609375 -51.515625 -135.269531 -54.234375 -147.59375 C -56.941406 -159.914062 -55.539062 -172.597656 -50.03125 -185.640625 C -40.21875 -208.921875 -15.382812 -228.597656 24.46875 -244.671875 C 29.894531 -245.640625 34.738281 -246.382812 39 -246.90625 C 40.539062 -246.9375 42.984375 -247.046875 46.328125 -247.234375 C 49.546875 -247.035156 53.285156 -247.046875 57.546875 -247.265625 L 65.609375 -243.96875 C 66.171875 -243.8125 66.703125 -243.550781 67.203125 -243.1875 C 71.066406 -241.457031 75.03125 -238.375 79.09375 -233.9375 C 83.007812 -229.4375 84.054688 -224.753906 82.234375 -219.890625 C 82.054688 -219.328125 81.910156 -219.015625 81.796875 -218.953125 C 80.003906 -215.203125 76.085938 -212.523438 70.046875 -210.921875 C 63.460938 -209.492188 57.0625 -207.851562 50.84375 -206 L 40.203125 -203.46875 C 35.296875 -201.519531 30.085938 -199.101562 24.578125 -196.21875 C 15.421875 -186.5625 21.847656 -180.707031 43.859375 -178.65625 C 45.859375 -178.132812 54.226562 -177.675781 68.96875 -177.28125 Z M 68.96875 -177.28125 "/></g></g></g></g></g><g clip-path="url(#2d973f6dbd)"><g clip-path="url(#6d98823595)"><g clip-path="url(#657872217c)"><g clip-path="url(#36f8ac7ae1)"><path fill="#f6d636" d="M 781.828125 529.566406 C 783.605469 530.042969 785.003906 531.230469 786.480469 532.21875 C 789.40625 534.132812 792.03125 536.484375 795.109375 538.175781 C 799.917969 540.835938 804.644531 543.726562 809.699219 545.886719 C 815.277344 548.324219 821.023438 550.277344 826.929688 551.746094 C 829.546875 552.414062 832.199219 552.871094 834.886719 553.109375 C 840.011719 553.527344 845.074219 553.164062 850.082031 552.007812 C 855.34375 550.75 860.175781 548.472656 865.070312 546.335938 C 870.765625 543.792969 876.3125 540.964844 881.71875 537.851562 C 883.484375 536.847656 885.117188 535.597656 886.832031 534.503906 C 887.542969 534.105469 888.300781 533.972656 889.109375 534.109375 C 889.675781 534.183594 889.789062 534.71875 889.453125 535.445312 C 888.589844 537.378906 887.566406 539.222656 886.382812 540.980469 C 883.367188 545.671875 880.527344 550.476562 877.902344 555.390625 C 876 559.109375 874.359375 562.941406 872.992188 566.886719 C 872.195312 569.0625 868.066406 581.726562 867.710938 583.945312 C 866.761719 589.429688 867.027344 594.859375 868.511719 600.230469 C 869.296875 602.933594 870.328125 605.539062 871.597656 608.050781 C 873.265625 611.441406 874.714844 615.027344 876.335938 618.457031 C 878.375 622.820312 880.71875 627.011719 883.367188 631.035156 C 884.667969 633.125 885.828125 635.289062 886.851562 637.523438 C 887.144531 638.140625 886.871094 638.542969 886.1875 638.570312 C 885.6875 638.539062 885.226562 638.390625 884.804688 638.121094 C 883.21875 637.277344 881.699219 636.332031 880.242188 635.277344 C 876.097656 632.550781 871.765625 630.167969 867.246094 628.121094 C 861.101562 625.207031 854.675781 623.183594 847.972656 622.058594 C 845.65625 621.6875 843.3125 621.144531 840.980469 620.675781 C 837.527344 619.980469 834.085938 620.273438 830.601562 620.539062 C 817.460938 621.292969 786.960938 636.558594 784.597656 637.949219 C 784.347656 638.09375 784.085938 638.214844 783.8125 638.308594 C 783.4375 638.433594 782.941406 638.695312 782.65625 638.378906 C 782.417969 637.949219 782.398438 637.511719 782.609375 637.066406 C 785.003906 630.917969 787.125 624.652344 789.023438 618.351562 C 790.765625 612.5625 792.6875 606.808594 794.160156 600.933594 C 795.542969 595.664062 796.621094 590.332031 797.40625 584.9375 C 798.394531 577.53125 797.839844 570.242188 795.742188 563.066406 C 794.328125 558.175781 792.5 553.445312 790.253906 548.875 C 788.308594 545.003906 786.621094 540.949219 784.691406 537.027344 C 783.792969 535.203125 783.15625 533.210938 781.703125 531.664062 C 781.308594 531.25 781.378906 530.578125 781.339844 530.003906 Z M 781.828125 529.566406 " fill-opacity="1" fill-rule="nonzero"/></g></g></g></g><g transform="matrix(1, 0, 0, 1, 896, 522)"><g clip-path="url(#cd9df48156)"><g fill="#e8678f" fill-opacity="1"><g transform="translate(80.994859, 312.907517)"><g><path d="M 97.453125 -73.390625 C 114.960938 -78.960938 130.613281 -81.601562 144.40625 -81.3125 C 149.894531 -81.113281 153.375 -80.96875 154.84375 -80.875 C 175.96875 -79.5 195.535156 -73.523438 213.546875 -62.953125 C 228.898438 -54.054688 240.738281 -42.320312 249.0625 -27.75 C 252.875 -20.789062 255.414062 -12.570312 256.6875 -3.09375 C 257.863281 6.5 257.320312 15.164062 255.0625 22.90625 C 252.332031 31.507812 247.050781 40.507812 239.21875 49.90625 C 227.582031 63.707031 214.96875 73.976562 201.375 80.71875 C 193.144531 84.820312 184.140625 87.753906 174.359375 89.515625 C 164.472656 91.378906 155.082031 92.457031 146.1875 92.75 C 132.875 93.144531 119.710938 91.628906 106.703125 88.203125 C 93.691406 84.773438 82 78.757812 71.625 70.15625 C 61.050781 60.957031 52.878906 50.535156 47.109375 38.890625 C 42.515625 29.585938 39.429688 19.953125 37.859375 9.984375 C 36.097656 -0.00390625 36.929688 -9.835938 40.359375 -19.515625 C 43.484375 -29.097656 49.113281 -38.25 57.25 -46.96875 C 68.789062 -59.488281 82.191406 -68.296875 97.453125 -73.390625 Z M 115.203125 -14.828125 C 109.035156 -8.660156 106.148438 1.265625 106.546875 14.953125 C 106.941406 28.660156 112.519531 37.375 123.28125 41.09375 C 130.125 43.4375 136.144531 43.09375 141.34375 40.0625 C 146.332031 37.03125 150.335938 32.628906 153.359375 26.859375 C 160.210938 13.753906 158.789062 0.300781 149.09375 -13.5 C 139.414062 -27.300781 128.117188 -27.742188 115.203125 -14.828125 Z M 115.203125 -14.828125 "/></g></g></g></g></g><g transform="matrix(1, 0, 0, 1, 134, 475)"><g clip-path="url(#44ae0fafe6)"><g fill="#3d98d6" fill-opacity="1"><g transform="translate(422.627112, 468.233768)"><g><path d="M -160.015625 -234.015625 C -184.210938 -249.234375 -201.285156 -262.039062 -211.234375 -272.4375 C -214.867188 -276.382812 -218.476562 -280.472656 -222.0625 -284.703125 C -225.625 -288.941406 -228.753906 -293.210938 -231.453125 -297.515625 C -232.671875 -299.648438 -233.6875 -301.722656 -234.5 -303.734375 C -235.789062 -306.742188 -236.71875 -311.648438 -237.28125 -318.453125 C -237.257812 -324.128906 -236.804688 -330.414062 -235.921875 -337.3125 C -234.941406 -344.039062 -233.078125 -350 -230.328125 -355.1875 C -228.066406 -359.5 -224.242188 -363.164062 -218.859375 -366.1875 C -211.554688 -370.1875 -202.519531 -373.359375 -191.75 -375.703125 C -179.25 -378.785156 -163.082031 -381.171875 -143.25 -382.859375 C -123.4375 -384.410156 -102.859375 -385.289062 -81.515625 -385.5 C -60.203125 -385.5625 -39.613281 -384.941406 -19.75 -383.640625 C 0.21875 -382.179688 16.488281 -379.789062 29.0625 -376.46875 C 35.539062 -374.976562 42.210938 -372.804688 49.078125 -369.953125 C 56.054688 -366.921875 61.070312 -362.5 64.125 -356.6875 C 67.707031 -350.039062 68.921875 -336.488281 67.765625 -316.03125 C 66.722656 -295.394531 59.382812 -285.082031 45.75 -285.09375 C 42.09375 -285.21875 38.410156 -285.859375 34.703125 -287.015625 C 31.117188 -288.109375 27.570312 -289.054688 24.0625 -289.859375 C 0.78125 -296.066406 -25.460938 -300.1875 -54.671875 -302.21875 C -83.742188 -304.21875 -104.1875 -304.519531 -116 -303.125 C -127.832031 -301.726562 -125.347656 -295.257812 -108.546875 -283.71875 C -91.734375 -272.195312 -72.128906 -261.445312 -49.734375 -251.46875 C -27.210938 -241.320312 -12.625 -234.347656 -5.96875 -230.546875 C 0.8125 -226.710938 2.0625 -215.488281 -2.21875 -196.875 C -6.363281 -178.238281 -12.335938 -168.613281 -20.140625 -168 C -27.816406 -167.332031 -44.421875 -166.742188 -69.953125 -166.234375 C -95.359375 -165.691406 -117.578125 -164.765625 -136.609375 -163.453125 C -155.691406 -162.023438 -160.234375 -158.03125 -150.234375 -151.46875 C -140.117188 -144.882812 -121.492188 -136.0625 -94.359375 -125 C -67.222656 -113.9375 -41.8125 -106.171875 -18.125 -101.703125 C -14.65625 -100.765625 -11.050781 -100.082031 -7.3125 -99.65625 C -3.476562 -99.050781 0.0976562 -97.945312 3.421875 -96.34375 C 15.671875 -90.382812 17.820312 -77.535156 9.875 -57.796875 C 1.9375 -38.035156 -5.128906 -25.816406 -11.328125 -21.140625 C -16.546875 -16.941406 -22.953125 -15.003906 -30.546875 -15.328125 C -38.015625 -15.617188 -44.984375 -16.507812 -51.453125 -18 C -64.191406 -20.65625 -79.847656 -25.75 -98.421875 -33.28125 C -116.984375 -40.8125 -135.8125 -49.398438 -154.90625 -59.046875 C -173.96875 -68.691406 -192.09375 -78.757812 -209.28125 -89.25 C -226.363281 -99.5625 -239.894531 -108.914062 -249.875 -117.3125 C -258.507812 -124.269531 -265.226562 -131.207031 -270.03125 -138.125 C -273.644531 -143.363281 -275.488281 -148.617188 -275.5625 -153.890625 C -275.75 -159.898438 -274.765625 -166.347656 -272.609375 -173.234375 C -270.484375 -179.984375 -268.242188 -186 -265.890625 -191.28125 C -262.347656 -197.425781 -259.410156 -201.578125 -257.078125 -203.734375 C -255.429688 -205.347656 -253.582031 -206.910156 -251.53125 -208.421875 C -247.207031 -211.117188 -242.566406 -213.671875 -237.609375 -216.078125 C -232.523438 -218.460938 -227.453125 -220.773438 -222.390625 -223.015625 C -208.535156 -228.347656 -187.742188 -232.015625 -160.015625 -234.015625 Z M -160.015625 -234.015625 "/></g></g></g></g></g><g transform="matrix(1, 0, 0, 1, 1055, 913)"><g clip-path="url(#b90ec53b91)"><g fill="#25754a" fill-opacity="1"><g transform="translate(5.189417, 29.272488)"><g><path d="M 17.890625 -6.09375 L 18.90625 -4.46875 C 18.9375 -4.414062 18.960938 -4.375 18.984375 -4.34375 C 19.835938 -3.125 20.289062 -1.941406 20.34375 -0.796875 C 20.363281 0.378906 19.890625 1.46875 18.921875 2.46875 C 17.921875 3.476562 16.644531 4.140625 15.09375 4.453125 C 14.070312 4.648438 12.957031 4.625 11.75 4.375 C 10.539062 4.125 9.347656 3.707031 8.171875 3.125 C 8.160156 3.132812 8.15625 3.144531 8.15625 3.15625 L 8.125 3.15625 C 6.675781 2.414062 6.015625 2.007812 6.140625 1.9375 C 5.648438 1.582031 5.242188 1.257812 4.921875 0.96875 L 2.765625 -1.453125 C 2.378906 -2.003906 2.085938 -2.578125 1.890625 -3.171875 L 1.875 -3.234375 C 1.863281 -3.253906 1.859375 -3.28125 1.859375 -3.3125 C 1.835938 -3.332031 1.828125 -3.359375 1.828125 -3.390625 C 1.816406 -3.398438 1.8125 -3.421875 1.8125 -3.453125 C 1.707031 -3.785156 1.707031 -4.09375 1.8125 -4.375 L 1.859375 -4.484375 C 2.023438 -4.847656 2.234375 -5.273438 2.484375 -5.765625 C 2.734375 -6.253906 3.003906 -6.632812 3.296875 -6.90625 C 3.597656 -7.195312 3.863281 -7.210938 4.09375 -6.953125 C 4.332031 -6.691406 4.507812 -6.4375 4.625 -6.1875 C 4.625 -6.144531 4.640625 -6.113281 4.671875 -6.09375 C 4.679688 -6.0625 4.695312 -6.035156 4.71875 -6.015625 C 5.019531 -5.367188 5.414062 -4.753906 5.90625 -4.171875 C 7.039062 -2.867188 8.289062 -2.082031 9.65625 -1.8125 C 9.726562 -1.800781 9.859375 -1.8125 10.046875 -1.84375 C 10.585938 -1.894531 10.835938 -2.195312 10.796875 -2.75 C 10.785156 -2.769531 10.78125 -2.796875 10.78125 -2.828125 C 10.769531 -2.859375 10.769531 -2.890625 10.78125 -2.921875 C 10.71875 -3.117188 10.15625 -4.070312 9.09375 -5.78125 C 7.570312 -8.21875 6.757812 -9.75 6.65625 -10.375 C 6.375 -11.875 6.644531 -13.132812 7.46875 -14.15625 C 8.269531 -15.164062 9.390625 -15.863281 10.828125 -16.25 C 13.347656 -16.957031 16.550781 -16.21875 20.4375 -14.03125 C 20.875 -13.65625 21.25 -13.304688 21.5625 -12.984375 C 21.6875 -12.878906 21.859375 -12.703125 22.078125 -12.453125 C 22.265625 -12.160156 22.507812 -11.851562 22.8125 -11.53125 C 23.175781 -11.144531 23.265625 -10.859375 23.078125 -10.671875 C 23.097656 -10.617188 23.113281 -10.554688 23.125 -10.484375 C 23.21875 -10.078125 23.210938 -9.5625 23.109375 -8.9375 C 23.015625 -8.320312 22.71875 -7.929688 22.21875 -7.765625 C 22.15625 -7.753906 22.113281 -7.75 22.09375 -7.75 C 21.675781 -7.644531 21.207031 -7.785156 20.6875 -8.171875 C 20.132812 -8.628906 19.585938 -9.046875 19.046875 -9.421875 L 18.15625 -10.109375 C 17.664062 -10.378906 17.125 -10.644531 16.53125 -10.90625 C 15.15625 -11.03125 15.097656 -10.132812 16.359375 -8.21875 C 16.460938 -8.019531 16.972656 -7.3125 17.890625 -6.09375 Z M 17.890625 -6.09375 "/></g></g></g><g fill="#25754a" fill-opacity="1"><g transform="translate(28.894005, 38.764736)"><g><path d="M 7.703125 -14.484375 C 7.734375 -14.609375 7.769531 -14.738281 7.8125 -14.875 C 8.132812 -16 8.4375 -16.835938 8.71875 -17.390625 C 8.976562 -17.941406 9.296875 -18.398438 9.671875 -18.765625 C 10.003906 -19.078125 10.351562 -19.257812 10.71875 -19.3125 C 11.164062 -19.375 11.582031 -19.378906 11.96875 -19.328125 C 12.363281 -19.253906 12.78125 -19.144531 13.21875 -19 C 13.832031 -18.800781 14.289062 -18.539062 14.59375 -18.21875 C 14.90625 -17.875 14.914062 -17.34375 14.625 -16.625 C 14.238281 -15.226562 13.910156 -14.070312 13.640625 -13.15625 C 13.847656 -13.09375 14.054688 -13.023438 14.265625 -12.953125 C 14.816406 -12.785156 15.359375 -12.578125 15.890625 -12.328125 C 16.128906 -12.140625 16.390625 -11.894531 16.671875 -11.59375 C 16.890625 -11.375 17.007812 -11.054688 17.03125 -10.640625 C 17.09375 -9.972656 16.960938 -9.410156 16.640625 -8.953125 C 16.316406 -8.492188 15.816406 -8.28125 15.140625 -8.3125 C 14.453125 -8.351562 13.613281 -8.515625 12.625 -8.796875 L 12.609375 -8.71875 C 11.796875 -6.113281 11.472656 -4.34375 11.640625 -3.40625 C 11.796875 -2.476562 12.25 -1.703125 13 -1.078125 C 13.738281 -0.453125 13.851562 0.359375 13.34375 1.359375 C 12.851562 2.347656 11.953125 2.78125 10.640625 2.65625 C 9.304688 2.53125 8.164062 1.859375 7.21875 0.640625 C 6.269531 -0.585938 5.804688 -2.125 5.828125 -3.96875 C 5.847656 -5.820312 6.09375 -7.8125 6.5625 -9.9375 L 6.65625 -10.34375 C 6 -10.46875 5.359375 -10.609375 4.734375 -10.765625 C 4.523438 -10.785156 4.382812 -10.800781 4.3125 -10.8125 C 4.1875 -10.84375 4.085938 -10.882812 4.015625 -10.9375 C 3.910156 -11.007812 3.832031 -11.09375 3.78125 -11.1875 C 3.71875 -11.28125 3.671875 -11.40625 3.640625 -11.5625 C 3.648438 -12.175781 3.710938 -12.664062 3.828125 -13.03125 C 3.941406 -13.40625 4.066406 -13.71875 4.203125 -13.96875 C 4.359375 -14.269531 4.679688 -14.453125 5.171875 -14.515625 C 5.460938 -14.554688 5.800781 -14.585938 6.1875 -14.609375 C 6.414062 -14.597656 6.757812 -14.570312 7.21875 -14.53125 C 7.332031 -14.53125 7.492188 -14.515625 7.703125 -14.484375 Z M 7.703125 -14.484375 "/></g></g></g><g fill="#25754a" fill-opacity="1"><g transform="translate(49.69743, 43.04932)"><g><path d="M 9.328125 -1.5 C 8.554688 -0.851562 7.664062 -0.59375 6.65625 -0.71875 C 5.863281 -0.738281 5.007812 -1.101562 4.09375 -1.8125 C 3.113281 -2.5625 2.414062 -3.523438 2 -4.703125 C 1.582031 -5.878906 1.328125 -7.050781 1.234375 -8.21875 C 1.171875 -9.050781 1.179688 -10.195312 1.265625 -11.65625 C 1.328125 -13.113281 1.601562 -14.226562 2.09375 -15 C 2.25 -15.257812 2.472656 -15.40625 2.765625 -15.4375 C 3.253906 -15.5 3.832031 -15.40625 4.5 -15.15625 C 5.164062 -14.90625 5.613281 -14.648438 5.84375 -14.390625 C 5.945312 -14.285156 6.007812 -14.164062 6.03125 -14.03125 C 6.113281 -13.851562 6.117188 -13.648438 6.046875 -13.421875 C 5.984375 -13.191406 5.925781 -12.984375 5.875 -12.796875 C 5.65625 -12.066406 5.523438 -11.289062 5.484375 -10.46875 C 5.441406 -9.632812 5.476562 -8.863281 5.59375 -8.15625 C 5.65625 -7.664062 5.769531 -7.242188 5.9375 -6.890625 C 6.425781 -5.953125 7.078125 -5.507812 7.890625 -5.5625 C 8.710938 -5.601562 9.320312 -6.25 9.71875 -7.5 C 10.125 -8.738281 10.25 -10.300781 10.09375 -12.1875 C 10.070312 -12.4375 10.050781 -12.695312 10.03125 -12.96875 C 10 -13.25 9.992188 -13.515625 10.015625 -13.765625 C 10.109375 -14.242188 10.390625 -14.570312 10.859375 -14.75 C 11.328125 -14.9375 11.84375 -15.03125 12.40625 -15.03125 C 12.96875 -15.03125 13.519531 -14.960938 14.0625 -14.828125 C 14.601562 -14.691406 14.96875 -14.550781 15.15625 -14.40625 C 15.53125 -14.125 15.78125 -13.734375 15.90625 -13.234375 C 16.007812 -12.710938 16.070312 -12.210938 16.09375 -11.734375 C 16.164062 -10.796875 16.132812 -9.617188 16 -8.203125 C 15.84375 -6.785156 15.640625 -5.332031 15.390625 -3.84375 C 15.109375 -2.332031 14.890625 -1.429688 14.734375 -1.140625 C 14.585938 -0.859375 14.359375 -0.5 14.046875 -0.0625 C 13.765625 0.289062 13.457031 0.523438 13.125 0.640625 C 12.738281 0.796875 12.304688 0.875 11.828125 0.875 C 11.335938 0.882812 10.90625 0.859375 10.53125 0.796875 C 10 0.703125 9.597656 0.519531 9.328125 0.25 C 9.054688 -0.0195312 9.039062 -0.523438 9.28125 -1.265625 Z M 9.328125 -1.5 "/></g></g></g><g fill="#25754a" fill-opacity="1"><g transform="translate(72.321964, 43.737864)"><g><path d="M 4.765625 -8.015625 C 4.859375 -7.273438 5.367188 -6.570312 6.296875 -5.90625 C 7.234375 -5.21875 8.097656 -5.144531 8.890625 -5.6875 C 9.390625 -6.019531 9.660156 -6.441406 9.703125 -6.953125 C 9.753906 -7.429688 9.664062 -7.925781 9.4375 -8.4375 C 9.164062 -9 8.753906 -9.441406 8.203125 -9.765625 C 7.640625 -10.078125 7.09375 -10.234375 6.5625 -10.234375 C 6.007812 -10.222656 5.546875 -10.046875 5.171875 -9.703125 C 4.796875 -9.328125 4.660156 -8.765625 4.765625 -8.015625 Z M 11.6875 -3.234375 C 11.363281 -2.921875 11.023438 -2.625 10.671875 -2.34375 C 9.867188 -1.707031 8.957031 -1.269531 7.9375 -1.03125 C 6.914062 -0.8125 5.90625 -0.804688 4.90625 -1.015625 C 4.144531 -1.160156 3.421875 -1.421875 2.734375 -1.796875 C 2.046875 -2.171875 1.484375 -2.6875 1.046875 -3.34375 C 0.617188 -3.976562 0.320312 -4.757812 0.15625 -5.6875 C -0.0625 -7 0.0234375 -8.238281 0.421875 -9.40625 C 0.628906 -9.976562 0.875 -10.546875 1.15625 -11.109375 C 1.40625 -11.640625 1.726562 -12.15625 2.125 -12.65625 C 2.289062 -12.882812 2.457031 -13.097656 2.625 -13.296875 C 3.664062 -14.515625 4.925781 -15.429688 6.40625 -16.046875 C 7.550781 -16.523438 8.691406 -16.71875 9.828125 -16.625 C 9.222656 -20.0625 8.957031 -21.863281 9.03125 -22.03125 C 9.15625 -22.351562 9.34375 -22.585938 9.59375 -22.734375 C 9.882812 -22.898438 10.226562 -23.023438 10.625 -23.109375 C 11.03125 -23.179688 11.40625 -23.222656 11.75 -23.234375 C 12.207031 -23.242188 12.59375 -23.171875 12.90625 -23.015625 C 13.207031 -22.835938 13.441406 -21.675781 13.609375 -19.53125 C 14.054688 -15.832031 14.488281 -12.785156 14.90625 -10.390625 C 15.3125 -7.992188 15.921875 -5.910156 16.734375 -4.140625 C 16.816406 -3.941406 16.90625 -3.75 17 -3.5625 C 17.09375 -3.351562 17.160156 -3.148438 17.203125 -2.953125 C 17.253906 -2.578125 17.109375 -2.289062 16.765625 -2.09375 C 16.421875 -1.875 16.015625 -1.722656 15.546875 -1.640625 C 15.066406 -1.554688 14.585938 -1.523438 14.109375 -1.546875 C 13.609375 -1.546875 13.257812 -1.59375 13.0625 -1.6875 C 12.675781 -1.84375 12.363281 -2.109375 12.125 -2.484375 C 11.945312 -2.734375 11.800781 -2.984375 11.6875 -3.234375 Z M 11.6875 -3.234375 "/></g></g></g><g fill="#25754a" fill-opacity="1"><g transform="translate(95.985362, 39.734234)"><g><path d="M -1.921875 -15.328125 C -1.671875 -15.453125 -1.394531 -15.5625 -1.09375 -15.65625 C -0.945312 -15.6875 -0.816406 -15.71875 -0.703125 -15.75 C -0.0664062 -15.875 0.382812 -15.957031 0.65625 -16 C 1.050781 -16.039062 1.375 -16.066406 1.625 -16.078125 C 1.664062 -16.085938 1.738281 -16.078125 1.84375 -16.046875 C 1.894531 -16.023438 1.96875 -15.988281 2.0625 -15.9375 L 2.28125 -15.84375 C 2.320312 -15.8125 2.398438 -15.765625 2.515625 -15.703125 C 2.546875 -15.648438 2.585938 -15.585938 2.640625 -15.515625 L 2.828125 -15.1875 C 2.859375 -15.101562 2.914062 -14.988281 3 -14.84375 C 3.019531 -14.800781 3.046875 -14.734375 3.078125 -14.640625 C 3.253906 -13.898438 3.484375 -12.804688 3.765625 -11.359375 C 3.878906 -10.671875 4.046875 -9.957031 4.265625 -9.21875 C 4.765625 -7.539062 5.425781 -5.8125 6.25 -4.03125 C 6.320312 -3.707031 6.363281 -3.394531 6.375 -3.09375 C 6.382812 -2.78125 6.378906 -2.5625 6.359375 -2.4375 C 6.285156 -2.226562 6.0625 -2.03125 5.6875 -1.84375 C 5.519531 -1.75 5.328125 -1.671875 5.109375 -1.609375 C 4.890625 -1.535156 4.671875 -1.472656 4.453125 -1.421875 C 4.046875 -1.304688 3.597656 -1.21875 3.109375 -1.15625 C 2.722656 -1.101562 2.394531 -1.082031 2.125 -1.09375 L 1.90625 -1.125 C 1.875 -1.125 1.800781 -1.148438 1.6875 -1.203125 C 1.632812 -1.222656 1.5625 -1.265625 1.46875 -1.328125 C 1.46875 -1.316406 1.398438 -1.359375 1.265625 -1.453125 C 1.222656 -1.472656 1.171875 -1.539062 1.109375 -1.65625 C 1.035156 -1.738281 0.972656 -1.847656 0.921875 -1.984375 C 0.828125 -2.179688 0.207031 -3.816406 -0.9375 -6.890625 C -1.132812 -7.441406 -1.3125 -7.976562 -1.46875 -8.5 L -1.5 -8.65625 L -1.53125 -8.71875 C -1.53125 -8.738281 -1.535156 -8.765625 -1.546875 -8.796875 C -2.222656 -11.109375 -2.347656 -13.285156 -1.921875 -15.328125 Z M 0.234375 -21.8125 C 0.898438 -21.476562 1.335938 -20.957031 1.546875 -20.25 C 1.742188 -19.5625 1.65625 -18.894531 1.28125 -18.25 C 0.90625 -17.601562 0.347656 -17.171875 -0.390625 -16.953125 C -1.117188 -16.742188 -1.816406 -16.8125 -2.484375 -17.15625 C -3.160156 -17.488281 -3.597656 -18 -3.796875 -18.6875 C -4.003906 -19.394531 -3.914062 -20.070312 -3.53125 -20.71875 C -3.144531 -21.351562 -2.585938 -21.773438 -1.859375 -21.984375 C -1.117188 -22.203125 -0.421875 -22.144531 0.234375 -21.8125 Z M 0.234375 -21.8125 "/></g></g></g><g fill="#25754a" fill-opacity="1"><g transform="translate(109.258051, 35.732656)"><g><path d="M -2.53125 -8.671875 C -2.476562 -10.046875 -2.257812 -11.207031 -1.875 -12.15625 C -1.707031 -12.519531 -1.601562 -12.753906 -1.5625 -12.859375 C -0.90625 -14.296875 0.015625 -15.492188 1.203125 -16.453125 C 2.234375 -17.296875 3.363281 -17.8125 4.59375 -18 C 5.175781 -18.09375 5.804688 -18.054688 6.484375 -17.890625 C 7.191406 -17.734375 7.785156 -17.472656 8.265625 -17.109375 C 8.785156 -16.691406 9.273438 -16.085938 9.734375 -15.296875 C 10.378906 -14.128906 10.757812 -12.984375 10.875 -11.859375 C 10.945312 -11.179688 10.910156 -10.484375 10.765625 -9.765625 C 10.640625 -9.023438 10.472656 -8.34375 10.265625 -7.71875 C 9.941406 -6.78125 9.488281 -5.90625 8.90625 -5.09375 C 8.332031 -4.289062 7.613281 -3.640625 6.75 -3.140625 C 5.832031 -2.640625 4.890625 -2.347656 3.921875 -2.265625 C 3.171875 -2.171875 2.425781 -2.207031 1.6875 -2.375 C 0.9375 -2.507812 0.273438 -2.820312 -0.296875 -3.3125 C -0.878906 -3.769531 -1.367188 -4.398438 -1.765625 -5.203125 C -2.328125 -6.328125 -2.582031 -7.484375 -2.53125 -8.671875 Z M 1.984375 -8.390625 C 2.253906 -7.796875 2.867188 -7.332031 3.828125 -7 C 4.785156 -6.675781 5.535156 -6.835938 6.078125 -7.484375 C 6.421875 -7.898438 6.554688 -8.328125 6.484375 -8.765625 C 6.398438 -9.179688 6.195312 -9.570312 5.875 -9.9375 C 5.144531 -10.75 4.175781 -11.003906 2.96875 -10.703125 C 1.75 -10.398438 1.421875 -9.628906 1.984375 -8.390625 Z M 1.984375 -8.390625 "/></g></g></g></g></g></svg>