<svg xmlns="http://www.w3.org/2000/svg" xmlns:xlink="http://www.w3.org/1999/xlink" width="2000" zoomAndPan="magnify" viewBox="0 0 1500 599.999999" height="800" preserveAspectRatio="xMidYMid meet" version="1.0"><defs><g/><clipPath id="8b36f5262c"><rect x="0" width="510" y="0" height="600"/></clipPath><clipPath id="2b77309752"><rect x="0" width="256" y="0" height="600"/></clipPath><clipPath id="c34f0079e3"><rect x="0" width="574" y="0" height="511"/></clipPath><clipPath id="975b3f3362"><path d="M 773 16 L 919 16 L 919 163 L 773 163 Z M 773 16 " clip-rule="nonzero"/></clipPath><clipPath id="ebd89fe61d"><path d="M 851.535156 -52.367188 L 986.394531 98.691406 L 837.574219 231.554688 L 702.714844 80.496094 Z M 851.535156 -52.367188 " clip-rule="nonzero"/></clipPath><clipPath id="1241879d28"><path d="M 851.535156 -52.367188 L 986.394531 98.691406 L 837.574219 231.554688 L 702.714844 80.496094 Z M 851.535156 -52.367188 " clip-rule="nonzero"/></clipPath><clipPath id="07497738a9"><path d="M 851.535156 -52.367188 L 986.394531 98.691406 L 837.574219 231.554688 L 702.714844 80.496094 Z M 851.535156 -52.367188 " clip-rule="nonzero"/></clipPath><clipPath id="a1ac369166"><path d="M 113 232 L 496 232 L 496 593 L 113 593 Z M 113 232 " clip-rule="nonzero"/></clipPath><clipPath id="1cde0f8fc4"><rect x="0" width="573" y="0" height="593"/></clipPath><clipPath id="c593ecde7b"><path d="M 75 0 L 588 0 L 588 564 L 75 564 Z M 75 0 " clip-rule="nonzero"/></clipPath><clipPath id="eacfc2e3ca"><rect x="0" width="734" y="0" height="600"/></clipPath><clipPath id="c1dc2fb6d8"><rect x="0" width="171" y="0" height="71"/></clipPath></defs><g transform="matrix(1, 0, 0, 1, 587, -0.000000000000034788)"><g clip-path="url(#8b36f5262c)"><g fill="#f93d3a" fill-opacity="1"><g transform="translate(0.525483, 556.63861)"><g><path d="M 257.046875 -278.6875 C 269.628906 -314.769531 281.191406 -340.863281 291.734375 -356.96875 C 295.804688 -362.882812 300.0625 -368.804688 304.5 -374.734375 C 308.945312 -380.648438 313.578125 -386.015625 318.390625 -390.828125 C 320.796875 -393.046875 323.203125 -394.988281 325.609375 -396.65625 C 329.117188 -399.25 335.222656 -401.9375 343.921875 -404.71875 C 351.328125 -406.375 359.65625 -407.664062 368.90625 -408.59375 C 377.96875 -409.332031 386.296875 -408.6875 393.890625 -406.65625 C 400.179688 -404.988281 406.101562 -401.101562 411.65625 -395 C 419.050781 -386.664062 425.894531 -375.835938 432.1875 -362.515625 C 439.957031 -347.160156 447.914062 -326.804688 456.0625 -301.453125 C 464.019531 -276.097656 471.332031 -249.539062 478 -221.78125 C 484.46875 -194.03125 489.832031 -167.015625 494.09375 -140.734375 C 498.164062 -114.273438 499.921875 -92.347656 499.359375 -74.953125 C 499.359375 -66.066406 498.53125 -56.71875 496.875 -46.90625 C 495.019531 -36.914062 490.757812 -29.050781 484.09375 -23.3125 C 476.507812 -16.65625 459.207031 -11.015625 432.1875 -6.390625 C 404.988281 -1.578125 389.351562 -8.050781 385.28125 -25.8125 C 384.351562 -30.625 384.078125 -35.617188 384.453125 -40.796875 C 384.816406 -45.796875 385 -50.703125 385 -55.515625 C 386.113281 -87.710938 383.617188 -123.148438 377.515625 -161.828125 C 371.398438 -200.316406 365.660156 -227.054688 360.296875 -242.046875 C 354.929688 -257.035156 347.253906 -251.851562 337.265625 -226.5 C 327.265625 -201.15625 319.117188 -172.378906 312.828125 -140.171875 C 306.359375 -107.785156 301.640625 -86.691406 298.671875 -76.890625 C 295.710938 -66.898438 281.460938 -61.90625 255.921875 -61.90625 C 230.390625 -61.71875 216.050781 -66.617188 212.90625 -76.609375 C 209.757812 -86.421875 204.019531 -107.890625 195.6875 -141.015625 C 187.363281 -173.953125 179.5 -202.632812 172.09375 -227.0625 C 164.507812 -251.488281 157.941406 -256.207031 152.390625 -241.21875 C 146.835938 -226.039062 140.914062 -199.113281 134.625 -160.4375 C 128.332031 -121.757812 125.832031 -86.320312 127.125 -54.125 C 126.945312 -49.3125 127.132812 -44.410156 127.6875 -39.421875 C 128.050781 -34.234375 127.679688 -29.234375 126.578125 -24.421875 C 122.503906 -6.660156 106.40625 0 78.28125 -4.4375 C 50.144531 -8.882812 32.101562 -14.4375 24.15625 -21.09375 C 17.113281 -26.644531 12.671875 -34.414062 10.828125 -44.40625 C 8.972656 -54.21875 8.046875 -63.566406 8.046875 -72.453125 C 7.679688 -89.847656 9.625 -111.773438 13.875 -138.234375 C 18.132812 -164.691406 23.6875 -191.800781 30.53125 -219.5625 C 37.375 -247.320312 45.054688 -273.972656 53.578125 -299.515625 C 61.898438 -324.859375 70.039062 -345.304688 78 -360.859375 C 84.476562 -374.179688 91.507812 -385.003906 99.09375 -393.328125 C 104.832031 -399.617188 111.125 -403.597656 117.96875 -405.265625 C 125.738281 -407.304688 134.4375 -407.953125 144.0625 -407.203125 C 153.5 -406.460938 162.007812 -405.351562 169.59375 -403.875 C 178.664062 -401.101562 184.960938 -398.515625 188.484375 -396.109375 C 191.066406 -394.441406 193.65625 -392.5 196.25 -390.28125 C 201.0625 -385.46875 205.78125 -380.191406 210.40625 -374.453125 C 215.03125 -368.535156 219.5625 -362.613281 224 -356.6875 C 235.101562 -340.21875 246.117188 -314.21875 257.046875 -278.6875 Z M 257.046875 -278.6875 "/></g></g></g></g></g><g transform="matrix(1, 0, 0, 1, 437, -0.000000000000034788)"><g clip-path="url(#2b77309752)"><g fill="#31a768" fill-opacity="1"><g transform="translate(25.915017, 535.312022)"><g><path d="M 84.453125 -265.4375 C 89.535156 -265.601562 94.910156 -265.257812 100.578125 -264.40625 C 103.140625 -264.019531 105.597656 -263.550781 107.953125 -263 C 119.148438 -260.375 127.164062 -258.320312 132 -256.84375 C 138.757812 -254.519531 144.164062 -252.488281 148.21875 -250.75 C 149.101562 -250.4375 150.296875 -249.695312 151.796875 -248.53125 C 152.441406 -247.875 153.3125 -246.804688 154.40625 -245.328125 L 157.234375 -241.8125 C 157.703125 -241.1875 158.539062 -239.941406 159.75 -238.078125 C 160.164062 -237.078125 160.515625 -235.617188 160.796875 -233.703125 L 161.453125 -226.859375 C 161.234375 -225.398438 161.265625 -223.144531 161.546875 -220.09375 C 161.617188 -219.34375 161.53125 -218.144531 161.28125 -216.5 C 158.65625 -202.863281 153.992188 -183.164062 147.296875 -157.40625 C 144.160156 -145.34375 141.554688 -132.453125 139.484375 -118.734375 C 134.941406 -87.410156 132.703125 -53.96875 132.765625 -18.40625 C 131.535156 -12.789062 129.875 -7.425781 127.78125 -2.3125 C 125.707031 2.800781 123.878906 6.269531 122.296875 8.09375 C 119.597656 11.050781 114.484375 12.710938 106.953125 13.078125 C 103.546875 13.304688 99.832031 13.113281 95.8125 12.5 C 91.75 12.070312 87.632812 11.453125 83.46875 10.640625 C 75.976562 9.328125 67.953125 7.273438 59.390625 4.484375 C 52.941406 2.566406 47.453125 0.519531 42.921875 -1.65625 L 39.875 -3.8125 C 39.195312 -4.28125 38.144531 -5.367188 36.71875 -7.078125 C 36.0625 -7.742188 35.210938 -8.90625 34.171875 -10.5625 C 34.140625 -10.375 33.382812 -11.609375 31.90625 -14.265625 C 31.257812 -14.921875 30.828125 -16.390625 30.609375 -18.671875 C 30.160156 -20.609375 29.941406 -22.890625 29.953125 -25.515625 C 29.992188 -29.429688 32.332031 -60.988281 36.96875 -120.1875 C 37.769531 -130.539062 38.90625 -140.566406 40.375 -150.265625 L 40.578125 -151.640625 L 40.796875 -153.015625 L 41 -154.390625 C 41.050781 -154.742188 41.117188 -155.195312 41.203125 -155.75 C 47.703125 -198.75 62.117188 -235.3125 84.453125 -265.4375 Z M 169.015625 -355.125 C 177.328125 -344.507812 180.503906 -332.710938 178.546875 -319.734375 C 176.609375 -306.921875 170.101562 -296.671875 159.03125 -288.984375 C 147.957031 -281.304688 135.5625 -278.503906 121.84375 -280.578125 C 108.289062 -282.617188 97.359375 -288.945312 89.046875 -299.5625 C 80.722656 -310.175781 77.53125 -321.890625 79.46875 -334.703125 C 81.425781 -347.679688 87.945312 -358.015625 99.03125 -365.703125 C 110.082031 -373.203125 122.382812 -375.929688 135.9375 -373.890625 C 149.65625 -371.816406 160.679688 -365.5625 169.015625 -355.125 Z M 169.015625 -355.125 "/></g></g></g></g></g><g transform="matrix(1, 0, 0, 1, 816, -0.000000000000034788)"><g clip-path="url(#c34f0079e3)"><g fill="#f6d636" fill-opacity="1"><g transform="translate(270.866249, 379.148834)"><g><path d="M 92.21875 -237.09375 L 116.734375 -233.96875 L 118.71875 -233.75 C 137.78125 -232.457031 153.320312 -227.335938 165.34375 -218.390625 C 177.269531 -209.191406 184.40625 -195.585938 186.75 -177.578125 C 188.914062 -159.503906 185.296875 -141.316406 175.890625 -123.015625 C 169.742188 -111.222656 160.5625 -100.238281 148.34375 -90.0625 C 136.132812 -79.882812 122.484375 -71.253906 107.390625 -64.171875 L 107.28125 -63.796875 L 107.15625 -63.4375 C 88.195312 -54.945312 78.660156 -51.613281 78.546875 -53.4375 C 71.140625 -51.21875 64.707031 -49.726562 59.25 -48.96875 L 17.6875 -46.90625 C 9 -47.5625 0.859375 -49.347656 -6.734375 -52.265625 C -7.140625 -52.253906 -7.472656 -52.289062 -7.734375 -52.375 C -7.984375 -52.445312 -8.191406 -52.648438 -8.359375 -52.984375 C -8.773438 -52.972656 -9.148438 -53.085938 -9.484375 -53.328125 C -9.734375 -53.410156 -9.984375 -53.492188 -10.234375 -53.578125 C -14.234375 -55.234375 -17.34375 -57.769531 -19.5625 -61.1875 L -20.328125 -62.671875 C -22.492188 -67.179688 -25.085938 -72.722656 -28.109375 -79.296875 C -31.054688 -85.691406 -32.703125 -91.410156 -33.046875 -96.453125 C -33.648438 -101.984375 -31.722656 -104.878906 -27.265625 -105.140625 C -22.710938 -105.210938 -18.644531 -104.832031 -15.0625 -104 C -14.5625 -103.84375 -14.109375 -103.769531 -13.703125 -103.78125 C -13.285156 -103.78125 -12.953125 -103.742188 -12.703125 -103.671875 C -3.804688 -101.441406 5.609375 -100.425781 15.546875 -100.625 C 37.617188 -101.550781 55.582031 -107.738281 69.4375 -119.1875 C 70.082031 -119.945312 71.046875 -121.289062 72.328125 -123.21875 C 76.023438 -129.320312 74.859375 -134.34375 68.828125 -138.28125 C 68.566406 -138.363281 68.269531 -138.53125 67.9375 -138.78125 L 66.921875 -139.5 C 64.503906 -140.519531 50.476562 -142.566406 24.84375 -145.640625 C -12.082031 -150.296875 -34.101562 -154.625 -41.21875 -158.625 C -58.445312 -167.96875 -68.878906 -180.882812 -72.515625 -197.375 C -76.148438 -213.851562 -74.285156 -230.8125 -66.921875 -248.25 C -53.804688 -279.382812 -20.59375 -305.691406 32.71875 -327.171875 C 39.976562 -328.484375 46.457031 -329.476562 52.15625 -330.15625 C 54.21875 -330.195312 57.488281 -330.351562 61.96875 -330.625 C 66.269531 -330.363281 71.269531 -330.378906 76.96875 -330.671875 L 87.734375 -326.28125 C 88.484375 -326.039062 89.195312 -325.679688 89.875 -325.203125 C 95.039062 -322.890625 100.335938 -318.769531 105.765625 -312.84375 C 111.003906 -306.820312 112.40625 -300.554688 109.96875 -294.046875 C 109.738281 -293.304688 109.539062 -292.894531 109.375 -292.8125 C 106.988281 -287.789062 101.765625 -284.207031 93.703125 -282.0625 C 84.867188 -280.144531 76.300781 -277.945312 68 -275.46875 L 53.796875 -272.09375 C 47.222656 -269.488281 40.25 -266.25 32.875 -262.375 C 20.625 -249.476562 29.21875 -241.660156 58.65625 -238.921875 C 61.320312 -238.222656 72.507812 -237.613281 92.21875 -237.09375 Z M 92.21875 -237.09375 "/></g></g></g></g></g><g clip-path="url(#975b3f3362)"><g clip-path="url(#ebd89fe61d)"><g clip-path="url(#1241879d28)"><g clip-path="url(#07497738a9)"><path fill="#f6d636" d="M 774.539062 16.632812 C 776.910156 17.269531 778.785156 18.859375 780.757812 20.175781 C 784.667969 22.734375 788.175781 25.878906 792.292969 28.136719 C 798.71875 31.691406 805.035156 35.558594 811.789062 38.445312 C 819.25 41.703125 826.925781 44.3125 834.824219 46.277344 C 838.320312 47.171875 841.867188 47.777344 845.460938 48.097656 C 852.308594 48.660156 859.074219 48.167969 865.765625 46.625 C 872.804688 44.941406 879.261719 41.898438 885.804688 39.039062 C 893.414062 35.644531 900.832031 31.863281 908.054688 27.703125 C 910.417969 26.359375 912.601562 24.6875 914.890625 23.226562 C 915.84375 22.691406 916.855469 22.515625 917.933594 22.695312 C 918.691406 22.800781 918.84375 23.515625 918.390625 24.488281 C 917.238281 27.070312 915.871094 29.535156 914.289062 31.882812 C 910.257812 38.15625 906.460938 44.578125 902.957031 51.148438 C 900.410156 56.117188 898.21875 61.238281 896.390625 66.511719 C 895.324219 69.421875 889.804688 86.34375 889.332031 89.3125 C 888.703125 92.933594 888.480469 96.582031 888.660156 100.253906 C 888.839844 103.925781 889.421875 107.535156 890.402344 111.082031 C 891.449219 114.691406 892.824219 118.175781 894.527344 121.53125 C 896.75 126.066406 898.6875 130.859375 900.859375 135.441406 C 903.582031 141.273438 906.714844 146.878906 910.257812 152.253906 C 911.992188 155.046875 913.546875 157.9375 914.910156 160.929688 C 915.304688 161.75 914.9375 162.289062 914.023438 162.324219 C 913.355469 162.28125 912.738281 162.082031 912.171875 161.726562 C 910.054688 160.597656 908.023438 159.332031 906.078125 157.921875 C 900.539062 154.28125 894.746094 151.09375 888.707031 148.359375 C 880.492188 144.464844 871.90625 141.761719 862.945312 140.257812 C 859.847656 139.757812 856.714844 139.035156 853.601562 138.410156 C 848.980469 137.480469 844.382812 137.867188 839.726562 138.226562 C 822.164062 139.238281 781.394531 159.640625 778.238281 161.5 C 777.902344 161.695312 777.550781 161.855469 777.1875 161.980469 C 776.6875 162.148438 776.019531 162.5 775.640625 162.070312 C 775.320312 161.5 775.296875 160.914062 775.574219 160.320312 C 778.777344 152.101562 781.617188 143.730469 784.148438 135.304688 C 786.480469 127.566406 789.050781 119.878906 791.019531 112.023438 C 792.863281 104.980469 794.308594 97.851562 795.355469 90.644531 C 796.007812 85.75 796.148438 80.839844 795.777344 75.910156 C 795.402344 70.984375 794.519531 66.152344 793.136719 61.40625 C 791.246094 54.871094 788.800781 48.550781 785.800781 42.441406 C 783.199219 37.265625 780.945312 31.84375 778.363281 26.601562 C 777.164062 24.167969 776.316406 21.503906 774.375 19.4375 C 773.84375 18.882812 773.9375 17.984375 773.886719 17.214844 Z M 774.539062 16.632812 " fill-opacity="1" fill-rule="nonzero"/></g></g></g></g><g transform="matrix(1, 0, 0, 1, 927, 7)"><g clip-path="url(#1cde0f8fc4)"><g clip-path="url(#a1ac369166)"><g fill="#e8678f" fill-opacity="1"><g transform="translate(108.496513, 417.998769)"><g><path d="M 130.328125 -98.140625 C 153.742188 -105.597656 174.675781 -109.132812 193.125 -108.75 C 200.445312 -108.46875 205.097656 -108.265625 207.078125 -108.140625 C 235.328125 -106.304688 261.488281 -98.320312 285.5625 -84.1875 C 306.101562 -72.289062 321.9375 -56.59375 333.0625 -37.09375 C 338.164062 -27.800781 341.5625 -16.8125 343.25 -4.125 C 344.820312 8.695312 344.101562 20.28125 341.09375 30.625 C 337.4375 42.132812 330.378906 54.171875 319.921875 66.734375 C 304.347656 85.179688 287.460938 98.921875 269.265625 107.953125 C 258.273438 113.441406 246.238281 117.363281 233.15625 119.71875 C 219.945312 122.21875 207.390625 123.660156 195.484375 124.046875 C 177.691406 124.566406 160.085938 122.535156 142.671875 117.953125 C 125.273438 113.367188 109.644531 105.320312 95.78125 93.8125 C 81.644531 81.507812 70.710938 67.578125 62.984375 52.015625 C 56.847656 39.585938 52.738281 26.695312 50.65625 13.34375 C 48.289062 0 49.398438 -13.148438 53.984375 -26.109375 C 58.160156 -38.929688 65.679688 -51.160156 76.546875 -62.796875 C 91.984375 -79.546875 109.910156 -91.328125 130.328125 -98.140625 Z M 154.078125 -19.828125 C 145.828125 -11.578125 141.960938 1.703125 142.484375 20.015625 C 143.003906 38.328125 150.460938 49.972656 164.859375 54.953125 C 174.023438 58.097656 182.070312 57.632812 189 53.5625 C 195.675781 49.507812 201.035156 43.628906 205.078125 35.921875 C 214.253906 18.390625 212.359375 0.398438 199.390625 -18.046875 C 186.441406 -36.492188 171.335938 -37.085938 154.078125 -19.828125 Z M 154.078125 -19.828125 "/></g></g></g></g></g></g><g transform="matrix(1, 0, 0, 1, 0, -0.000000000000034788)"><g clip-path="url(#eacfc2e3ca)"><g clip-path="url(#c593ecde7b)"><g fill="#3d98d6" fill-opacity="1"><g transform="translate(473.340005, 569.867095)"><g><path d="M -213.984375 -312.9375 C -246.328125 -333.300781 -269.160156 -350.425781 -282.484375 -364.3125 C -287.347656 -369.601562 -292.164062 -375.078125 -296.9375 -380.734375 C -301.71875 -386.378906 -305.910156 -392.085938 -309.515625 -397.859375 C -311.148438 -400.710938 -312.507812 -403.5 -313.59375 -406.21875 C -315.320312 -410.207031 -316.566406 -416.753906 -317.328125 -425.859375 C -317.296875 -433.453125 -316.691406 -441.859375 -315.515625 -451.078125 C -314.210938 -460.085938 -311.710938 -468.054688 -308.015625 -474.984375 C -304.984375 -480.742188 -299.875 -485.644531 -292.6875 -489.6875 C -282.90625 -495.03125 -270.816406 -499.28125 -256.421875 -502.4375 C -239.710938 -506.5625 -218.09375 -509.75 -191.5625 -512 C -165.070312 -514.070312 -137.554688 -515.242188 -109.015625 -515.515625 C -80.515625 -515.609375 -52.984375 -514.785156 -26.421875 -513.046875 C 0.296875 -511.078125 22.066406 -507.878906 38.890625 -503.453125 C 47.535156 -501.460938 56.453125 -498.554688 65.640625 -494.734375 C 74.960938 -490.679688 81.675781 -484.765625 85.78125 -476.984375 C 90.5625 -468.097656 92.175781 -449.976562 90.625 -422.625 C 89.226562 -395.019531 79.414062 -381.222656 61.1875 -381.234375 C 56.289062 -381.429688 51.359375 -382.285156 46.390625 -383.796875 C 41.609375 -385.285156 36.867188 -386.566406 32.171875 -387.640625 C 1.046875 -395.929688 -34.039062 -401.4375 -73.09375 -404.15625 C -111.976562 -406.832031 -139.328125 -407.238281 -155.140625 -405.375 C -170.953125 -403.488281 -167.625 -394.84375 -145.15625 -379.4375 C -122.6875 -364.007812 -96.46875 -349.625 -66.5 -336.28125 C -36.382812 -322.707031 -16.882812 -313.378906 -8 -308.296875 C 1.070312 -303.179688 2.75 -288.175781 -2.96875 -263.28125 C -8.519531 -238.351562 -16.507812 -225.472656 -26.9375 -224.640625 C -37.207031 -223.773438 -59.410156 -222.992188 -93.546875 -222.296875 C -127.523438 -221.578125 -157.242188 -220.347656 -182.703125 -218.609375 C -208.203125 -216.679688 -214.269531 -211.335938 -200.90625 -202.578125 C -187.375 -193.753906 -162.46875 -181.945312 -126.1875 -167.15625 C -89.894531 -152.351562 -55.921875 -141.972656 -24.265625 -136.015625 C -19.617188 -134.753906 -14.796875 -133.835938 -9.796875 -133.265625 C -4.660156 -132.460938 0.128906 -130.984375 4.578125 -128.828125 C 20.960938 -120.878906 23.84375 -103.695312 13.21875 -77.28125 C 2.570312 -50.851562 -6.882812 -34.519531 -15.15625 -28.28125 C -22.132812 -22.65625 -30.703125 -20.0625 -40.859375 -20.5 C -50.835938 -20.894531 -60.15625 -22.085938 -68.8125 -24.078125 C -85.832031 -27.617188 -106.765625 -34.425781 -131.609375 -44.5 C -156.429688 -54.582031 -181.601562 -66.066406 -207.125 -78.953125 C -232.65625 -91.859375 -256.898438 -105.320312 -279.859375 -119.34375 C -302.703125 -133.125 -320.804688 -145.640625 -334.171875 -156.890625 C -345.710938 -166.191406 -354.691406 -175.472656 -361.109375 -184.734375 C -365.953125 -191.734375 -368.414062 -198.753906 -368.5 -205.796875 C -368.75 -213.828125 -367.4375 -222.445312 -364.5625 -231.65625 C -361.726562 -240.6875 -358.734375 -248.734375 -355.578125 -255.796875 C -350.835938 -264.015625 -346.90625 -269.5625 -343.78125 -272.4375 C -341.570312 -274.601562 -339.09375 -276.695312 -336.34375 -278.71875 C -330.582031 -282.320312 -324.390625 -285.738281 -317.765625 -288.96875 C -310.953125 -292.15625 -304.164062 -295.242188 -297.40625 -298.234375 C -278.863281 -305.367188 -251.054688 -310.269531 -213.984375 -312.9375 Z M -213.984375 -312.9375 "/></g></g></g></g></g></g><g transform="matrix(1, 0, 0, 1, 1140, 529)"><g clip-path="url(#c1dc2fb6d8)"><g fill="#25754a" fill-opacity="1"><g transform="translate(6.75247, 39.575373)"><g><path d="M 23.921875 -8.15625 L 25.296875 -5.96875 C 25.316406 -5.90625 25.347656 -5.851562 25.390625 -5.8125 C 26.535156 -4.195312 27.132812 -2.609375 27.1875 -1.046875 C 27.226562 0.503906 26.59375 1.957031 25.28125 3.3125 C 23.96875 4.644531 22.269531 5.515625 20.1875 5.921875 C 18.820312 6.203125 17.332031 6.175781 15.71875 5.84375 C 14.09375 5.507812 12.5 4.957031 10.9375 4.1875 C 10.914062 4.195312 10.90625 4.207031 10.90625 4.21875 L 10.875 4.234375 C 8.925781 3.242188 8.035156 2.691406 8.203125 2.578125 C 7.554688 2.109375 7.015625 1.6875 6.578125 1.3125 L 3.6875 -1.9375 C 3.1875 -2.675781 2.804688 -3.445312 2.546875 -4.25 L 2.515625 -4.34375 C 2.484375 -4.363281 2.472656 -4.394531 2.484375 -4.4375 C 2.460938 -4.457031 2.453125 -4.488281 2.453125 -4.53125 C 2.429688 -4.5625 2.421875 -4.585938 2.421875 -4.609375 C 2.273438 -5.046875 2.273438 -5.460938 2.421875 -5.859375 L 2.484375 -6 C 2.703125 -6.476562 2.976562 -7.046875 3.3125 -7.703125 C 3.644531 -8.359375 4 -8.863281 4.375 -9.21875 C 4.789062 -9.625 5.15625 -9.65625 5.46875 -9.3125 C 5.789062 -8.945312 6.023438 -8.597656 6.171875 -8.265625 C 6.191406 -8.210938 6.21875 -8.175781 6.25 -8.15625 C 6.269531 -8.113281 6.289062 -8.066406 6.3125 -8.015625 C 6.71875 -7.171875 7.25 -6.363281 7.90625 -5.59375 C 9.414062 -3.851562 11.085938 -2.796875 12.921875 -2.421875 C 13.015625 -2.410156 13.179688 -2.414062 13.421875 -2.4375 C 14.148438 -2.53125 14.484375 -2.941406 14.421875 -3.671875 C 14.410156 -3.710938 14.410156 -3.757812 14.421875 -3.8125 C 14.410156 -3.832031 14.398438 -3.863281 14.390625 -3.90625 C 14.316406 -4.175781 13.570312 -5.445312 12.15625 -7.71875 C 10.125 -11 9.035156 -13.054688 8.890625 -13.890625 C 8.523438 -15.878906 8.890625 -17.554688 9.984375 -18.921875 C 11.066406 -20.273438 12.5625 -21.210938 14.46875 -21.734375 C 17.832031 -22.679688 22.113281 -21.691406 27.3125 -18.765625 C 27.894531 -18.265625 28.398438 -17.800781 28.828125 -17.375 C 28.984375 -17.21875 29.210938 -16.972656 29.515625 -16.640625 C 29.773438 -16.265625 30.101562 -15.851562 30.5 -15.40625 C 30.976562 -14.882812 31.09375 -14.5 30.84375 -14.25 C 30.875 -14.195312 30.898438 -14.117188 30.921875 -14.015625 C 31.046875 -13.460938 31.039062 -12.773438 30.90625 -11.953125 C 30.78125 -11.128906 30.375 -10.613281 29.6875 -10.40625 C 29.613281 -10.375 29.5625 -10.351562 29.53125 -10.34375 C 28.976562 -10.21875 28.351562 -10.410156 27.65625 -10.921875 C 26.914062 -11.523438 26.179688 -12.082031 25.453125 -12.59375 L 24.28125 -13.515625 C 23.613281 -13.878906 22.882812 -14.234375 22.09375 -14.578125 C 20.257812 -14.742188 20.191406 -13.546875 21.890625 -10.984375 C 22.015625 -10.710938 22.691406 -9.769531 23.921875 -8.15625 Z M 23.921875 -8.15625 "/></g></g></g><g fill="#25754a" fill-opacity="1"><g transform="translate(38.452759, 52.269328)"><g><path d="M 10.3125 -19.375 C 10.34375 -19.519531 10.382812 -19.6875 10.4375 -19.875 C 10.863281 -21.382812 11.265625 -22.515625 11.640625 -23.265625 C 12.003906 -23.992188 12.441406 -24.597656 12.953125 -25.078125 C 13.390625 -25.492188 13.851562 -25.75 14.34375 -25.84375 C 14.914062 -25.90625 15.46875 -25.894531 16 -25.8125 C 16.539062 -25.726562 17.097656 -25.59375 17.671875 -25.40625 C 18.492188 -25.132812 19.109375 -24.78125 19.515625 -24.34375 C 19.921875 -23.894531 19.9375 -23.195312 19.5625 -22.25 C 19.039062 -20.363281 18.597656 -18.804688 18.234375 -17.578125 C 18.515625 -17.515625 18.789062 -17.429688 19.0625 -17.328125 C 19.789062 -17.109375 20.515625 -16.820312 21.234375 -16.46875 C 21.554688 -16.226562 21.910156 -15.898438 22.296875 -15.484375 C 22.566406 -15.203125 22.726562 -14.785156 22.78125 -14.234375 C 22.863281 -13.335938 22.691406 -12.582031 22.265625 -11.96875 C 21.835938 -11.363281 21.160156 -11.082031 20.234375 -11.125 C 19.316406 -11.15625 18.207031 -11.367188 16.90625 -11.765625 L 16.875 -11.640625 C 15.78125 -8.171875 15.34375 -5.816406 15.5625 -4.578125 C 15.769531 -3.316406 16.375 -2.269531 17.375 -1.4375 C 18.363281 -0.601562 18.523438 0.472656 17.859375 1.796875 C 17.179688 3.128906 15.96875 3.710938 14.21875 3.546875 C 12.445312 3.378906 10.925781 2.476562 9.65625 0.84375 C 8.382812 -0.789062 7.769531 -2.84375 7.8125 -5.3125 C 7.832031 -7.78125 8.15625 -10.441406 8.78125 -13.296875 L 8.90625 -13.84375 C 8.019531 -14 7.15625 -14.1875 6.3125 -14.40625 C 6.050781 -14.425781 5.875 -14.445312 5.78125 -14.46875 C 5.625 -14.5 5.476562 -14.550781 5.34375 -14.625 C 5.207031 -14.726562 5.109375 -14.832031 5.046875 -14.9375 C 4.972656 -15.0625 4.921875 -15.234375 4.890625 -15.453125 C 4.890625 -16.273438 4.96875 -16.9375 5.125 -17.4375 C 5.257812 -17.914062 5.425781 -18.328125 5.625 -18.671875 C 5.832031 -19.066406 6.269531 -19.320312 6.9375 -19.4375 C 7.300781 -19.476562 7.742188 -19.503906 8.265625 -19.515625 C 8.566406 -19.503906 9.03125 -19.472656 9.65625 -19.421875 C 9.789062 -19.429688 10.007812 -19.414062 10.3125 -19.375 Z M 10.3125 -19.375 "/></g></g></g><g fill="#25754a" fill-opacity="1"><g transform="translate(66.273005, 57.999057)"><g><path d="M 12.46875 -2 C 11.445312 -1.144531 10.253906 -0.796875 8.890625 -0.953125 C 7.835938 -0.972656 6.695312 -1.460938 5.46875 -2.421875 C 4.164062 -3.421875 3.238281 -4.707031 2.6875 -6.28125 C 2.125 -7.851562 1.78125 -9.425781 1.65625 -11 C 1.570312 -12.101562 1.582031 -13.628906 1.6875 -15.578125 C 1.78125 -17.515625 2.148438 -19 2.796875 -20.03125 C 3.003906 -20.382812 3.300781 -20.585938 3.6875 -20.640625 C 4.351562 -20.710938 5.128906 -20.582031 6.015625 -20.25 C 6.890625 -19.914062 7.476562 -19.570312 7.78125 -19.21875 C 7.9375 -19.09375 8.03125 -18.9375 8.0625 -18.75 C 8.15625 -18.507812 8.160156 -18.238281 8.078125 -17.9375 C 7.992188 -17.632812 7.914062 -17.359375 7.84375 -17.109375 C 7.539062 -16.140625 7.375 -15.109375 7.34375 -14.015625 C 7.28125 -12.898438 7.316406 -11.863281 7.453125 -10.90625 C 7.546875 -10.25 7.707031 -9.691406 7.9375 -9.234375 C 8.582031 -7.984375 9.453125 -7.390625 10.546875 -7.453125 C 11.648438 -7.503906 12.46875 -8.363281 13 -10.03125 C 13.539062 -11.6875 13.707031 -13.769531 13.5 -16.28125 C 13.476562 -16.613281 13.445312 -16.96875 13.40625 -17.34375 C 13.375 -17.695312 13.375 -18.046875 13.40625 -18.390625 C 13.519531 -19.035156 13.894531 -19.472656 14.53125 -19.703125 C 15.15625 -19.953125 15.84375 -20.082031 16.59375 -20.09375 C 17.34375 -20.09375 18.070312 -20.003906 18.78125 -19.828125 C 19.507812 -19.640625 20.003906 -19.445312 20.265625 -19.25 C 20.753906 -18.875 21.078125 -18.34375 21.234375 -17.65625 C 21.390625 -16.976562 21.488281 -16.316406 21.53125 -15.671875 C 21.613281 -14.429688 21.5625 -12.875 21.375 -11 C 21.175781 -9.09375 20.898438 -7.132812 20.546875 -5.125 C 20.179688 -3.113281 19.898438 -1.921875 19.703125 -1.546875 C 19.503906 -1.148438 19.191406 -0.664062 18.765625 -0.09375 C 18.390625 0.394531 17.984375 0.710938 17.546875 0.859375 C 17.023438 1.054688 16.445312 1.160156 15.8125 1.171875 C 15.164062 1.171875 14.59375 1.132812 14.09375 1.0625 C 13.363281 0.9375 12.820312 0.691406 12.46875 0.328125 C 12.101562 -0.0351562 12.085938 -0.707031 12.421875 -1.6875 Z M 12.46875 -2 "/></g></g></g><g fill="#25754a" fill-opacity="1"><g transform="translate(96.528848, 58.919855)"><g><path d="M 6.375 -10.71875 C 6.5 -9.738281 7.1875 -8.796875 8.4375 -7.890625 C 9.6875 -6.984375 10.832031 -6.894531 11.875 -7.625 C 12.550781 -8.0625 12.921875 -8.613281 12.984375 -9.28125 C 13.046875 -9.9375 12.921875 -10.609375 12.609375 -11.296875 C 12.253906 -12.046875 11.703125 -12.628906 10.953125 -13.046875 C 10.203125 -13.460938 9.472656 -13.671875 8.765625 -13.671875 C 8.046875 -13.660156 7.429688 -13.421875 6.921875 -12.953125 C 6.421875 -12.472656 6.238281 -11.726562 6.375 -10.71875 Z M 15.625 -4.34375 C 15.207031 -3.914062 14.753906 -3.515625 14.265625 -3.140625 C 13.191406 -2.296875 11.976562 -1.707031 10.625 -1.375 C 9.257812 -1.082031 7.90625 -1.070312 6.5625 -1.34375 C 5.539062 -1.539062 4.578125 -1.894531 3.671875 -2.40625 C 2.734375 -2.894531 1.972656 -3.582031 1.390625 -4.46875 C 0.828125 -5.320312 0.4375 -6.363281 0.21875 -7.59375 C -0.0820312 -9.351562 0.0390625 -11.015625 0.59375 -12.578125 C 0.84375 -13.347656 1.15625 -14.109375 1.53125 -14.859375 C 1.882812 -15.566406 2.320312 -16.257812 2.84375 -16.9375 C 3.0625 -17.21875 3.28125 -17.492188 3.5 -17.765625 C 4.90625 -19.410156 6.597656 -20.640625 8.578125 -21.453125 C 10.097656 -22.109375 11.617188 -22.363281 13.140625 -22.21875 C 12.328125 -26.820312 11.96875 -29.238281 12.0625 -29.46875 C 12.238281 -29.894531 12.492188 -30.195312 12.828125 -30.375 C 13.203125 -30.613281 13.671875 -30.785156 14.234375 -30.890625 C 14.765625 -30.984375 15.25 -31.035156 15.6875 -31.046875 C 16.320312 -31.066406 16.84375 -30.972656 17.25 -30.765625 C 17.65625 -30.535156 17.96875 -28.988281 18.1875 -26.125 C 18.789062 -21.175781 19.367188 -17.109375 19.921875 -13.921875 C 20.460938 -10.691406 21.28125 -7.898438 22.375 -5.546875 C 22.476562 -5.296875 22.597656 -5.035156 22.734375 -4.765625 C 22.859375 -4.492188 22.953125 -4.222656 23.015625 -3.953125 C 23.085938 -3.453125 22.890625 -3.066406 22.421875 -2.796875 C 21.972656 -2.515625 21.425781 -2.316406 20.78125 -2.203125 C 20.132812 -2.078125 19.488281 -2.03125 18.84375 -2.0625 C 18.195312 -2.070312 17.734375 -2.140625 17.453125 -2.265625 C 16.929688 -2.460938 16.519531 -2.804688 16.21875 -3.296875 C 15.988281 -3.648438 15.789062 -4 15.625 -4.34375 Z M 15.625 -4.34375 "/></g></g></g><g fill="#25754a" fill-opacity="1"><g transform="translate(128.174007, 53.565797)"><g><path d="M -2.578125 -20.5 C -2.242188 -20.664062 -1.867188 -20.8125 -1.453125 -20.9375 C -1.273438 -20.988281 -1.101562 -21.03125 -0.9375 -21.0625 C -0.09375 -21.226562 0.515625 -21.335938 0.890625 -21.390625 C 1.410156 -21.453125 1.832031 -21.488281 2.15625 -21.5 C 2.226562 -21.5 2.335938 -21.484375 2.484375 -21.453125 C 2.535156 -21.421875 2.625 -21.378906 2.75 -21.328125 L 3.046875 -21.15625 C 3.097656 -21.125 3.195312 -21.066406 3.34375 -20.984375 C 3.40625 -20.941406 3.46875 -20.863281 3.53125 -20.75 L 3.796875 -20.296875 C 3.828125 -20.191406 3.898438 -20.035156 4.015625 -19.828125 C 4.046875 -19.785156 4.078125 -19.707031 4.109375 -19.59375 C 4.347656 -18.601562 4.648438 -17.128906 5.015625 -15.171875 C 5.171875 -14.265625 5.394531 -13.316406 5.6875 -12.328125 C 6.351562 -10.085938 7.25 -7.769531 8.375 -5.375 C 8.457031 -4.957031 8.507812 -4.539062 8.53125 -4.125 C 8.539062 -3.71875 8.523438 -3.429688 8.484375 -3.265625 C 8.390625 -2.984375 8.097656 -2.707031 7.609375 -2.4375 C 7.378906 -2.320312 7.117188 -2.222656 6.828125 -2.140625 C 6.546875 -2.046875 6.25 -1.960938 5.9375 -1.890625 C 5.394531 -1.742188 4.796875 -1.628906 4.140625 -1.546875 C 3.640625 -1.472656 3.203125 -1.4375 2.828125 -1.4375 L 2.5625 -1.484375 C 2.5 -1.503906 2.390625 -1.550781 2.234375 -1.625 C 2.179688 -1.632812 2.09375 -1.6875 1.96875 -1.78125 C 1.976562 -1.757812 1.890625 -1.816406 1.703125 -1.953125 C 1.640625 -1.972656 1.566406 -2.054688 1.484375 -2.203125 C 1.390625 -2.328125 1.304688 -2.472656 1.234375 -2.640625 C 1.109375 -2.910156 0.273438 -5.109375 -1.265625 -9.234375 C -1.523438 -9.953125 -1.753906 -10.664062 -1.953125 -11.375 L -1.984375 -11.453125 L -2.046875 -11.671875 C -2.046875 -11.691406 -2.054688 -11.722656 -2.078125 -11.765625 C -2.972656 -14.859375 -3.140625 -17.769531 -2.578125 -20.5 Z M 0.3125 -29.15625 C 1.207031 -28.707031 1.789062 -28.015625 2.0625 -27.078125 C 2.332031 -26.160156 2.207031 -25.265625 1.6875 -24.390625 C 1.195312 -23.535156 0.457031 -22.960938 -0.53125 -22.671875 C -1.507812 -22.390625 -2.441406 -22.476562 -3.328125 -22.9375 C -4.210938 -23.394531 -4.789062 -24.082031 -5.0625 -25 C -5.332031 -25.9375 -5.210938 -26.835938 -4.703125 -27.703125 C -4.210938 -28.546875 -3.476562 -29.109375 -2.5 -29.390625 C -1.507812 -29.679688 -0.570312 -29.601562 0.3125 -29.15625 Z M 0.3125 -29.15625 "/></g></g></g><g fill="#25754a" fill-opacity="1"><g transform="translate(145.923381, 48.214534)"><g><path d="M -3.40625 -11.625 C -3.3125 -13.4375 -3.007812 -14.976562 -2.5 -16.25 C -2.300781 -16.75 -2.164062 -17.066406 -2.09375 -17.203125 C -1.226562 -19.109375 0.0078125 -20.71875 1.625 -22.03125 C 2.988281 -23.132812 4.492188 -23.8125 6.140625 -24.0625 C 6.921875 -24.1875 7.769531 -24.140625 8.6875 -23.921875 C 9.625 -23.691406 10.410156 -23.34375 11.046875 -22.875 C 11.742188 -22.320312 12.390625 -21.515625 12.984375 -20.453125 C 13.859375 -18.890625 14.375 -17.359375 14.53125 -15.859375 C 14.625 -14.941406 14.582031 -14.003906 14.40625 -13.046875 C 14.21875 -12.066406 13.988281 -11.160156 13.71875 -10.328125 C 13.28125 -9.078125 12.679688 -7.910156 11.921875 -6.828125 C 11.148438 -5.722656 10.175781 -4.84375 9 -4.1875 C 7.78125 -3.519531 6.535156 -3.128906 5.265625 -3.015625 C 4.234375 -2.910156 3.226562 -2.960938 2.25 -3.171875 C 1.269531 -3.347656 0.390625 -3.769531 -0.390625 -4.4375 C -1.171875 -5.050781 -1.828125 -5.890625 -2.359375 -6.953125 C -3.117188 -8.460938 -3.46875 -10.019531 -3.40625 -11.625 Z M 2.65625 -11.21875 C 3.007812 -10.425781 3.832031 -9.804688 5.125 -9.359375 C 6.40625 -8.910156 7.40625 -9.125 8.125 -10 C 8.582031 -10.550781 8.765625 -11.125 8.671875 -11.71875 C 8.546875 -12.289062 8.273438 -12.816406 7.859375 -13.296875 C 6.890625 -14.390625 5.59375 -14.726562 3.96875 -14.3125 C 2.351562 -13.894531 1.914062 -12.863281 2.65625 -11.21875 Z M 2.65625 -11.21875 "/></g></g></g></g></g></svg>