<svg xmlns="http://www.w3.org/2000/svg" xmlns:xlink="http://www.w3.org/1999/xlink" width="1000" zoomAndPan="magnify" viewBox="0 0 750 749.999995" height="1000" preserveAspectRatio="xMidYMid meet" version="1.0"><defs><clipPath id="1e2f08bf6b"><path d="M 9.597656 9.597656 L 740.097656 9.597656 L 740.097656 740.097656 L 9.597656 740.097656 Z M 9.597656 9.597656 " clip-rule="nonzero"/></clipPath></defs><g clip-path="url(#1e2f08bf6b)"><path fill="#f6d636" d="M 374.972656 15.390625 C 374.984375 21.273438 375.140625 27.152344 375.4375 33.023438 C 375.738281 38.898438 376.179688 44.761719 376.765625 50.613281 C 377.355469 56.46875 378.082031 62.300781 378.957031 68.117188 C 379.828125 73.933594 380.839844 79.726562 381.996094 85.492188 C 383.152344 91.261719 384.449219 96.996094 385.886719 102.699219 C 387.324219 108.402344 388.898438 114.066406 390.613281 119.695312 C 392.328125 125.320312 394.179688 130.902344 396.164062 136.4375 C 398.152344 141.972656 400.273438 147.457031 402.53125 152.886719 C 404.785156 158.320312 407.175781 163.695312 409.695312 169.007812 C 412.214844 174.324219 414.859375 179.574219 417.636719 184.757812 C 420.414062 189.945312 423.316406 195.058594 426.34375 200.101562 C 429.371094 205.144531 432.519531 210.109375 435.789062 215 C 439.058594 219.886719 442.445312 224.695312 445.949219 229.417969 C 449.457031 234.140625 453.074219 238.773438 456.808594 243.320312 C 460.539062 247.863281 464.382812 252.316406 468.332031 256.675781 C 472.28125 261.03125 476.335938 265.289062 480.496094 269.449219 C 484.65625 273.609375 488.914062 277.664062 493.269531 281.613281 C 497.628906 285.5625 502.082031 289.40625 506.625 293.136719 C 511.171875 296.871094 515.804688 300.488281 520.527344 303.996094 C 525.25 307.5 530.058594 310.886719 534.945312 314.15625 C 539.835938 317.425781 544.800781 320.574219 549.84375 323.601562 C 554.886719 326.628906 560 329.53125 565.1875 332.308594 C 570.371094 335.085938 575.621094 337.730469 580.9375 340.25 C 586.25 342.769531 591.625 345.160156 597.058594 347.414062 C 602.488281 349.671875 607.972656 351.792969 613.507812 353.78125 C 619.042969 355.765625 624.625 357.617188 630.25 359.332031 C 635.878906 361.046875 641.542969 362.621094 647.246094 364.058594 C 652.949219 365.496094 658.683594 366.792969 664.453125 367.949219 C 670.21875 369.105469 676.011719 370.117188 681.828125 370.988281 C 687.644531 371.863281 693.476562 372.589844 699.332031 373.179688 C 705.183594 373.765625 711.046875 374.207031 716.921875 374.507812 C 722.792969 374.804688 728.671875 374.960938 734.554688 374.972656 L 740.351562 374.972656 C 738.40625 374.972656 736.476562 374.972656 734.554688 374.972656 C 728.671875 374.984375 722.792969 375.140625 716.921875 375.4375 C 711.046875 375.738281 705.183594 376.179688 699.332031 376.765625 C 693.476562 377.355469 687.644531 378.082031 681.828125 378.957031 C 676.011719 379.828125 670.21875 380.839844 664.453125 381.996094 C 658.683594 383.152344 652.949219 384.449219 647.246094 385.886719 C 641.542969 387.324219 635.878906 388.898438 630.25 390.613281 C 624.625 392.328125 619.042969 394.175781 613.507812 396.164062 C 607.972656 398.152344 602.488281 400.273438 597.054688 402.53125 C 591.625 404.785156 586.25 407.175781 580.9375 409.691406 C 575.621094 412.210938 570.371094 414.859375 565.1875 417.636719 C 560 420.414062 554.886719 423.316406 549.84375 426.339844 C 544.800781 429.367188 539.835938 432.515625 534.945312 435.785156 C 530.058594 439.058594 525.25 442.445312 520.527344 445.949219 C 515.804688 449.457031 511.171875 453.074219 506.625 456.808594 C 502.078125 460.539062 497.628906 464.382812 493.269531 468.332031 C 488.914062 472.28125 484.65625 476.335938 480.496094 480.496094 C 476.335938 484.65625 472.28125 488.914062 468.332031 493.269531 C 464.378906 497.628906 460.539062 502.078125 456.808594 506.625 C 453.074219 511.171875 449.457031 515.804688 445.949219 520.527344 C 442.445312 525.25 439.058594 530.058594 435.785156 534.945312 C 432.515625 539.835938 429.367188 544.800781 426.339844 549.84375 C 423.316406 554.886719 420.414062 560 417.636719 565.1875 C 414.859375 570.371094 412.210938 575.621094 409.691406 580.9375 C 407.175781 586.25 404.785156 591.625 402.53125 597.054688 C 400.273438 602.488281 398.152344 607.972656 396.164062 613.507812 C 394.175781 619.042969 392.328125 624.625 390.613281 630.25 C 388.898438 635.878906 387.324219 641.542969 385.886719 647.246094 C 384.449219 652.949219 383.152344 658.683594 381.996094 664.453125 C 380.839844 670.21875 379.828125 676.011719 378.957031 681.828125 C 378.082031 687.644531 377.355469 693.480469 376.765625 699.332031 C 376.179688 705.183594 375.738281 711.046875 375.4375 716.921875 C 375.140625 722.792969 374.984375 728.671875 374.972656 734.554688 C 374.972656 736.472656 374.972656 738.40625 374.972656 740.351562 C 374.972656 738.40625 374.972656 736.476562 374.972656 734.554688 C 374.960938 728.671875 374.804688 722.792969 374.507812 716.921875 C 374.207031 711.046875 373.765625 705.183594 373.179688 699.332031 C 372.589844 693.480469 371.863281 687.644531 370.988281 681.828125 C 370.117188 676.011719 369.105469 670.21875 367.949219 664.453125 C 366.792969 658.683594 365.496094 652.949219 364.058594 647.246094 C 362.621094 641.542969 361.046875 635.878906 359.332031 630.25 C 357.617188 624.625 355.765625 619.042969 353.78125 613.507812 C 351.792969 607.972656 349.671875 602.488281 347.414062 597.058594 C 345.160156 591.625 342.769531 586.25 340.25 580.9375 C 337.730469 575.621094 335.085938 570.371094 332.308594 565.1875 C 329.53125 560 326.628906 554.886719 323.601562 549.84375 C 320.574219 544.800781 317.425781 539.835938 314.15625 534.945312 C 310.886719 530.058594 307.5 525.253906 303.996094 520.527344 C 300.488281 515.804688 296.871094 511.171875 293.136719 506.625 C 289.40625 502.082031 285.5625 497.628906 281.613281 493.269531 C 277.664062 488.914062 273.609375 484.65625 269.449219 480.496094 C 265.289062 476.335938 261.03125 472.28125 256.675781 468.332031 C 252.316406 464.382812 247.863281 460.539062 243.320312 456.808594 C 238.773438 453.074219 234.140625 449.457031 229.417969 445.949219 C 224.695312 442.445312 219.886719 439.058594 215 435.789062 C 210.109375 432.519531 205.144531 429.371094 200.101562 426.34375 C 195.058594 423.316406 189.945312 420.414062 184.757812 417.636719 C 179.574219 414.859375 174.324219 412.214844 169.007812 409.695312 C 163.695312 407.175781 158.320312 404.789062 152.886719 402.53125 C 147.457031 400.273438 141.972656 398.152344 136.4375 396.164062 C 130.902344 394.179688 125.320312 392.328125 119.695312 390.613281 C 114.066406 388.898438 108.402344 387.324219 102.699219 385.886719 C 96.996094 384.449219 91.261719 383.152344 85.492188 381.996094 C 79.726562 380.839844 73.933594 379.828125 68.117188 378.957031 C 62.300781 378.082031 56.46875 377.355469 50.613281 376.765625 C 44.761719 376.179688 38.898438 375.738281 33.023438 375.4375 C 27.152344 375.140625 21.273438 374.984375 15.390625 374.972656 C 13.472656 374.972656 11.539062 374.972656 9.597656 374.972656 L 15.390625 374.972656 C 21.273438 374.960938 27.152344 374.804688 33.023438 374.507812 C 38.898438 374.207031 44.761719 373.765625 50.613281 373.175781 C 56.464844 372.589844 62.300781 371.863281 68.117188 370.988281 C 73.933594 370.117188 79.726562 369.101562 85.492188 367.949219 C 91.261719 366.792969 96.996094 365.496094 102.699219 364.058594 C 108.402344 362.621094 114.066406 361.046875 119.695312 359.332031 C 125.320312 357.617188 130.902344 355.765625 136.4375 353.777344 C 141.972656 351.792969 147.457031 349.667969 152.886719 347.414062 C 158.320312 345.15625 163.691406 342.769531 169.007812 340.25 C 174.324219 337.730469 179.574219 335.082031 184.757812 332.308594 C 189.941406 329.53125 195.058594 326.628906 200.101562 323.601562 C 205.144531 320.574219 210.109375 317.425781 214.996094 314.15625 C 219.886719 310.886719 224.691406 307.5 229.414062 303.992188 C 234.136719 300.488281 238.773438 296.867188 243.320312 293.136719 C 247.863281 289.402344 252.316406 285.5625 256.671875 281.613281 C 261.03125 277.660156 265.289062 273.605469 269.449219 269.449219 C 273.605469 265.289062 277.660156 261.03125 281.613281 256.671875 C 285.5625 252.316406 289.402344 247.863281 293.136719 243.320312 C 296.867188 238.773438 300.488281 234.136719 303.992188 229.414062 C 307.5 224.691406 310.886719 219.886719 314.15625 214.996094 C 317.425781 210.109375 320.574219 205.144531 323.601562 200.101562 C 326.628906 195.058594 329.53125 189.941406 332.308594 184.757812 C 335.082031 179.574219 337.730469 174.324219 340.25 169.007812 C 342.769531 163.691406 345.15625 158.320312 347.414062 152.886719 C 349.667969 147.457031 351.792969 141.972656 353.777344 136.4375 C 355.765625 130.902344 357.617188 125.320312 359.332031 119.695312 C 361.046875 114.066406 362.621094 108.402344 364.058594 102.699219 C 365.496094 96.996094 366.792969 91.261719 367.949219 85.492188 C 369.101562 79.726562 370.117188 73.933594 370.988281 68.117188 C 371.863281 62.300781 372.589844 56.464844 373.175781 50.613281 C 373.765625 44.761719 374.207031 38.898438 374.507812 33.023438 C 374.804688 27.152344 374.960938 21.273438 374.972656 15.390625 C 374.972656 13.472656 374.972656 11.539062 374.972656 9.597656 C 374.96875 11.539062 374.96875 13.472656 374.972656 15.390625 Z M 374.972656 15.390625 " fill-opacity="1" fill-rule="nonzero"/></g></svg>